<svg height="512pt" preserveAspectRatio="xMidYMid meet" viewBox="0 0 512 512" width="512pt" xmlns="http://www.w3.org/2000/svg"><g fill="#fff" transform="matrix(.1 0 0 -.1 0 512)"><path d="m1805 5113c-91-8-261-46-356-79-522-182-897-600-1027-1149-25-103-27-125-27-350 1-223 2-249 28-366 58-273 129-440 334-786l125-213-7-147c-8-169-33-332-69-449l-26-80-87-59c-120-80-320-282-402-405-171-256-268-538-287-833-5-77-3-114 6-137 25-60 22-60 539-60h471l32 29c27 24 33 36 33 71s-6 47-33 71l-32 29h-408-408l8 72c26 228 120 468 259 668 95 136 354 370 408 370 9 0 278-62 599-138l582-137 360-415 359-415-470-5-471-5-24-28c-33-38-33-96 0-134l24-28 588-3c430-2 596 1 617 9 38 16 57 46 57 91 0 32-10 49-63 110-216 250-782 906-793 919s-6 35 37 144c28 71 52 131 54 133 1 2 37-4 79-12 58-13 142-16 375-16 326 0 365 5 463 63 65 38 145 128 181 204 31 67 32 71 35 232l4 164-70 68-70 68 65 41c77 49 93 80 93 178v68l67 33c93 45 125 73 159 133 24 45 29 64 29 123-1 86 0 85-195 385l-150 231v232 232l37 20c20 11 66 49 102 85 108 107 162 219 183 374 26 196-66 395-235 506-99 65-162 80-392 90-231 11-333 30-578 109-279 89-476 115-712 94zm410-218c44-9 132-33 195-52 341-106 422-122 675-133 116-5 195-13 223-23 154-54 243-210 213-373-31-167-161-306-322-343-24-6-98-11-164-11-127 0-191-12-264-49-86-45-136-105-312-383-94-147-173-268-174-268-2 0-14 19-28 43-33 56-131 148-188 175-232 112-490-33-575-324-21-72-24-218-5-294 21-88 75-190 135-255 30-32 58-70 61-83 8-31-11-67-76-146l-54-66h-261-262l-108 183c-187 313-257 476-305 712-30 147-37 429-14 567 99 592 576 1054 1175 1138 95 13 341 5 435-15zm985-1354v-229l175-269c96-149 175-279 175-290 0-27-19-42-133-103-53-28-104-61-112-73-10-15-15-47-15-104v-83l-100-65c-65-42-104-74-110-91-22-57-14-73 90-179l100-101v-83c0-46-5-101-12-122-16-55-73-118-132-145-50-23-58-24-341-24-324 0-357 5-482 65-39 19-101 62-137 95-59 53-71 60-108 60-86 0-127-87-75-156 22-30 87-90 142-129l28-20-50-125c-41-106-52-124-69-122-26 5-1039 243-1040 245-1 1 11 53 27 115 27 108 42 221 55 415l6 87h271c194 1 278 4 293 13 21 12 147 159 192 223 36 52 55 144 43 209-14 73-32 106-101 179-75 81-103 151-104 261-1 202 130 354 274 315 99-27 189-169 190-298 0-87 69-135 144-100 18 7 101 129 267 390 133 208 255 390 272 404 50 42 74 48 222 54 77 4 143 7 148 8 4 1 7-101 7-227z"/><path d="m4322 2801c-73-27-112-53-164-109-51-54-73-92-97-166-16-49-17-50-196-163-99-62-188-123-197-134-10-12-18-38-18-59s8-47 18-58c9-12 98-72 197-135l180-115 20-59c28-80 56-123 120-182 81-74 145-96 275-96 99 0 109 2 173 33 77 38 151 107 186 173 18 35 37 52 79 74 30 16 77 51 103 78 192 195 140 525-103 652-42 22-61 39-79 74-35 66-109 135-185 172-60 30-78 34-163 36-76 3-107-1-149-16zm227-200c50-26 97-81 112-131 13-42 58-90 85-90 24 0 87-36 116-67 74-77 76-199 6-279-31-35-95-74-122-74s-72-48-85-90c-26-86-111-150-201-150-116 0-195 70-215 190-4 25-11 53-16 62s-72 56-149 105c-77 48-140 90-140 93s63 45 140 93c77 49 144 96 149 105s12 37 16 62c20 120 97 189 213 190 33 0 67-7 91-19z"/><path d="m1394 190c-55-22-72-108-31-155 14-17 36-28 63-32 36-5 46-1 75 25 28 25 34 37 34 72 0 72-72 118-141 90z"/></g></svg>