<?xml version="1.0" encoding="UTF-8" standalone="no"?><!DOCTYPE svg PUBLIC "-//W3C//DTD SVG 1.1//EN" "http://www.w3.org/Graphics/SVG/1.1/DTD/svg11.dtd"><svg width="100%" height="100%" viewBox="0 0 1353 94" version="1.1" xmlns="http://www.w3.org/2000/svg" xmlns:xlink="http://www.w3.org/1999/xlink" xml:space="preserve" xmlns:serif="http://www.serif.com/" style="fill-rule:evenodd;clip-rule:evenodd;stroke-miterlimit:22.93;"><rect id="Prancheta2" x="0" y="0" width="1352.15" height="93.245" style="fill:none;"/><clipPath id="_clip1"><rect id="Prancheta21" serif:id="Prancheta2" x="0" y="0" width="1352.15" height="93.245"/></clipPath><g clip-path="url(#_clip1)"><g id="Prancheta1"><g id="Visa"><path d="M247.043,66.912l-9.732,0l6.083,-37.385l9.733,0l-6.084,37.385Z" style="fill:#0066b3;fill-rule:nonzero;"/><path d="M229.122,29.527l-9.279,25.713l-1.098,-5.537l0.001,0.002l-3.275,-16.811c0,0 -0.396,-3.367 -4.617,-3.367l-15.339,0l-0.18,0.633c0,0 4.692,0.975 10.181,4.274l8.456,32.478l10.14,0l15.486,-37.385l-10.476,0Z" style="fill:#0066b3;fill-rule:nonzero;"/><path d="M294.968,53.687l5.115,-13.99l2.877,13.99l-7.992,0Zm10.71,13.225l8.937,0l-7.792,-37.385l-7.825,0c-3.614,0 -4.493,2.786 -4.493,2.786l-14.516,34.599l10.145,0l2.03,-5.553l12.373,0l1.141,5.553Z" style="fill:#0066b3;fill-rule:nonzero;"/><path d="M280.75,38.517l1.389,-8.029c0,0 -4.286,-1.63 -8.754,-1.63c-4.83,0 -16.3,2.112 -16.3,12.376c0,9.659 13.462,9.779 13.462,14.851c0,5.071 -12.074,4.165 -16.059,0.965l-1.448,8.393c0,0 4.346,2.112 10.987,2.112c6.641,0 16.663,-3.44 16.663,-12.799c0,-9.719 -13.583,-10.625 -13.583,-14.85c0,-4.227 9.478,-3.684 13.643,-1.389Z" style="fill:#0066b3;fill-rule:nonzero;"/><path d="M218.746,49.705l-3.275,-16.811c0,0 -0.396,-3.367 -4.617,-3.367l-15.339,0l-0.18,0.633c0,0 7.373,1.528 14.446,7.253c6.76,5.471 8.965,12.292 8.965,12.292Z" style="fill:#faa633;fill-rule:nonzero;"/></g><g id="Mastercard"><g id="Layer_1-2"><rect x="321.844" y="-0.949" width="119.858" height="98.312" style="fill:none;"/><path d="M351.522,84.993l0,-4.899c0.005,-0.067 0.007,-0.134 0.007,-0.201c0,-1.595 -1.312,-2.907 -2.906,-2.907c-0.057,-0 -0.114,0.002 -0.171,0.005c-1.097,-0.072 -2.151,0.461 -2.743,1.388c-0.54,-0.899 -1.532,-1.433 -2.58,-1.388c-0.913,-0.046 -1.784,0.396 -2.286,1.16l0,-0.964l-1.698,-0l0,7.806l1.714,-0l0,-4.295c-0.011,-0.082 -0.017,-0.165 -0.017,-0.248c0,-1.003 0.826,-1.828 1.829,-1.828c0.033,-0 0.066,-0 0.099,0.002c1.127,-0 1.698,0.735 1.698,2.058l0,4.343l1.715,-0l0,-4.327c-0.011,-0.079 -0.016,-0.159 -0.016,-0.239c0,-1.008 0.829,-1.837 1.837,-1.837c0.03,-0 0.06,0.001 0.089,0.002c1.16,-0 1.715,0.735 1.715,2.058l0,4.343l1.714,-0.032Zm25.368,-7.806l-2.792,-0l0,-2.368l-1.715,-0l0,2.368l-1.551,-0l0,1.551l1.584,-0l0,3.593c0,1.813 0.702,2.89 2.711,2.89c0.75,0.003 1.486,-0.207 2.122,-0.604l-0.489,-1.453c-0.456,0.271 -0.973,0.423 -1.503,0.441c-0.816,-0 -1.126,-0.523 -1.126,-1.307l0,-3.56l2.776,-0l-0.017,-1.551Zm14.484,-0.196c-0.842,-0.025 -1.633,0.415 -2.057,1.143l0,-0.947l-1.682,-0l0,7.806l1.698,-0l0,-4.377c0,-1.29 0.555,-2.008 1.633,-2.008c0.363,-0.005 0.724,0.061 1.062,0.196l0.522,-1.633c-0.388,-0.139 -0.796,-0.211 -1.208,-0.212l0.032,0.032Zm-21.897,0.817c-0.962,-0.572 -2.067,-0.855 -3.185,-0.817c-1.975,-0 -3.266,0.947 -3.266,2.499c0,1.273 0.948,2.057 2.695,2.302l0.816,0.114c0.931,0.131 1.372,0.376 1.372,0.817c0,0.604 -0.621,0.947 -1.78,0.947c-0.932,0.027 -1.847,-0.261 -2.596,-0.817l-0.817,1.323c0.989,0.691 2.175,1.046 3.38,1.013c2.254,-0 3.56,-1.062 3.56,-2.548c0,-1.486 -1.029,-2.09 -2.727,-2.335l-0.816,-0.114c-0.735,-0.098 -1.323,-0.245 -1.323,-0.768c0,-0.522 0.555,-0.914 1.486,-0.914c0.86,0.01 1.704,0.24 2.449,0.669l0.752,-1.371Zm45.485,-0.817c-0.842,-0.025 -1.633,0.415 -2.057,1.143l0,-0.947l-1.682,-0l0,7.806l1.698,-0l0,-4.377c0,-1.29 0.555,-2.008 1.633,-2.008c0.363,-0.005 0.724,0.061 1.062,0.196l0.522,-1.633c-0.388,-0.139 -0.796,-0.211 -1.208,-0.212l0.032,0.032Zm-21.881,4.083c-0.002,0.048 -0.003,0.096 -0.003,0.145c0,2.163 1.78,3.943 3.944,3.943c0.074,-0 0.149,-0.002 0.223,-0.006c1.019,0.052 2.022,-0.28 2.809,-0.931l-0.817,-1.372c-0.587,0.448 -1.303,0.694 -2.041,0.703c-1.295,-0.105 -2.305,-1.2 -2.305,-2.499c0,-1.299 1.01,-2.393 2.305,-2.498c0.738,0.008 1.454,0.254 2.041,0.702l0.817,-1.372c-0.787,-0.65 -1.79,-0.982 -2.809,-0.93c-0.074,-0.005 -0.149,-0.007 -0.223,-0.007c-2.164,-0 -3.944,1.78 -3.944,3.944c0,0.048 0.001,0.097 0.003,0.145l0,0.033Zm15.905,3.886l0,-7.773l-1.698,-0l0,0.947c-0.585,-0.752 -1.498,-1.178 -2.45,-1.143c-2.239,-0 -4.082,1.843 -4.082,4.083c0,2.239 1.843,4.082 4.082,4.082c0.952,0.035 1.865,-0.391 2.45,-1.143l0,0.947l1.698,-0Zm-6.32,-3.886c0.073,-1.24 1.114,-2.221 2.356,-2.221c1.294,-0 2.359,1.065 2.359,2.359c0,1.29 -1.057,2.353 -2.347,2.36l-0.03,-0c-1.285,-0 -2.343,-1.058 -2.343,-2.343c0,-0.052 0.002,-0.104 0.005,-0.155Zm-20.493,-4.083c-2.218,0.031 -4.026,1.864 -4.026,4.083c0,2.239 1.843,4.082 4.083,4.082l0.057,-0c1.174,0.06 2.33,-0.318 3.241,-1.061l-0.816,-1.258c-0.645,0.517 -1.444,0.805 -2.27,0.817c-1.16,0.099 -2.203,-0.754 -2.335,-1.911l5.797,-0l0,-0.653c0,-2.45 -1.519,-4.082 -3.707,-4.082l-0.024,-0.017Zm0,1.519c0.014,-0 0.027,-0.001 0.041,-0.001c1.046,-0 1.913,0.849 1.935,1.895l-4.083,-0c0.061,-1.083 0.99,-1.931 2.074,-1.894l0.033,-0Zm42.546,6.45l0,-10.908l-1.633,-0l0,4.082c-0.584,-0.752 -1.497,-1.178 -2.449,-1.143c-2.24,-0 -4.083,1.843 -4.083,4.083c0,2.239 1.843,4.082 4.083,4.082c0.952,0.035 1.865,-0.391 2.449,-1.143l0,0.947l1.633,-0Zm2.833,-1.102c0.107,-0.002 0.212,0.018 0.311,0.057c0.093,0.038 0.179,0.094 0.253,0.163c0.071,0.071 0.13,0.154 0.171,0.245c0.084,0.193 0.084,0.412 0,0.604c-0.041,0.092 -0.1,0.175 -0.171,0.245c-0.074,0.07 -0.16,0.125 -0.253,0.164c-0.098,0.043 -0.204,0.065 -0.311,0.065c-0.315,-0.002 -0.602,-0.187 -0.734,-0.474c-0.083,-0.193 -0.083,-0.411 0,-0.604c0.041,-0.091 0.099,-0.174 0.171,-0.245c0.074,-0.069 0.159,-0.125 0.253,-0.163c0.106,-0.042 0.221,-0.062 0.335,-0.057l-0.025,-0Zm0,1.38c0.082,-0 0.163,-0.017 0.237,-0.049c0.07,-0.032 0.134,-0.076 0.188,-0.131c0.211,-0.23 0.211,-0.587 0,-0.817c-0.054,-0.055 -0.118,-0.099 -0.188,-0.13c-0.075,-0.033 -0.155,-0.049 -0.237,-0.049c-0.081,-0 -0.162,0.017 -0.236,0.049c-0.074,0.03 -0.14,0.074 -0.196,0.13c-0.211,0.23 -0.211,0.587 0,0.817c0.056,0.056 0.122,0.1 0.196,0.131c0.082,0.035 0.171,0.052 0.261,0.049l-0.025,-0Zm0.049,-0.972c0.077,-0.004 0.152,0.019 0.213,0.065c0.05,0.042 0.078,0.106 0.073,0.172c0.002,0.055 -0.018,0.108 -0.057,0.147c-0.047,0.043 -0.108,0.069 -0.171,0.073l0.236,0.27l-0.188,-0l-0.22,-0.27l-0.073,-0l0,0.27l-0.156,-0l0,-0.719l0.343,-0.008Zm-0.179,0.139l0,0.196l0.179,-0c0.032,0.009 0.066,0.009 0.098,-0c0.012,-0.023 0.012,-0.051 0,-0.074c0.012,-0.023 0.012,-0.05 0,-0.073c-0.032,-0.01 -0.066,-0.01 -0.098,-0l-0.179,-0.049Zm-8.981,-3.315c0.073,-1.24 1.113,-2.221 2.355,-2.221c1.294,-0 2.36,1.065 2.36,2.36c0,1.29 -1.058,2.353 -2.348,2.359c-0.01,-0 -0.019,0.001 -0.029,0.001c-1.286,-0 -2.344,-1.058 -2.344,-2.344c0,-0.052 0.002,-0.103 0.006,-0.155Zm-57.341,3.87l0,-7.773l-1.699,-0l0,0.947c-0.584,-0.752 -1.497,-1.178 -2.449,-1.143c-2.24,-0 -4.082,1.843 -4.082,4.083c0,2.239 1.842,4.082 4.082,4.082c0.952,0.035 1.865,-0.391 2.449,-1.143l0,0.947l1.699,-0Zm-6.32,-3.87c0.073,-1.24 1.114,-2.221 2.356,-2.221c1.294,-0 2.359,1.065 2.359,2.36c0,1.29 -1.057,2.353 -2.347,2.359c-0.015,0.001 -0.031,0.001 -0.046,0.001c-1.286,-0 -2.343,-1.058 -2.343,-2.344c0,-0.051 0.001,-0.103 0.005,-0.155l0.016,-0Z" style="fill:#231f20;fill-rule:nonzero;"/><g id="_Group_"><rect x="368.913" y="17.707" width="25.719" height="46.221" style="fill:#ff5f00;"/><path id="_Path_" d="M370.546,40.821c-0.009,-9.014 4.135,-17.548 11.227,-23.114c-5.178,-4.069 -11.577,-6.283 -18.162,-6.283c-16.125,-0 -29.394,13.269 -29.394,29.393c0,16.125 13.269,29.393 29.394,29.393c6.585,-0 12.984,-2.213 18.162,-6.282c-7.089,-5.564 -11.234,-14.095 -11.227,-23.107Z" style="fill:#eb001b;fill-rule:nonzero;"/><path d="M429.332,40.821c0,16.125 -13.268,29.393 -29.393,29.393c-6.587,-0 -12.988,-2.215 -18.166,-6.286c7.086,-5.569 11.231,-14.098 11.231,-23.111c0,-9.012 -4.145,-17.541 -11.231,-23.11c5.178,-4.071 11.579,-6.286 18.166,-6.286c16.125,-0 29.393,13.268 29.393,29.392l0,0.008Z" style="fill:#f79e1b;fill-rule:nonzero;"/><path d="M426.524,59.029l0,-0.947l0.383,-0l0,-0.196l-0.971,-0l0,0.196l0.416,-0l0,0.947l0.172,-0Zm1.886,-0l0,-1.143l-0.294,-0l-0.343,0.816l-0.343,-0.816l-0.261,-0l0,1.143l0.212,-0l0,-0.857l0.318,0.743l0.221,-0l0.318,-0.743l0,0.865l0.172,-0.008Z" style="fill:#f79e1b;fill-rule:nonzero;"/></g></g><g id="Amex"><rect id="logo-blue-box-small-45-9x45-a" x="650.551" y="4.758" width="83.933" height="83.933" style="fill:#fff;"/><path id="path5" d="M734.483,50.22l0,-45.424l-83.932,-0l0,83.932l83.932,-0l0,-24.488c-0.187,-0 0,-14.02 0,-14.02" style="fill:#006fcf;fill-rule:nonzero;"/><path id="path7" d="M724.202,45.547l6.356,-0l0,-14.768l-6.917,-0l0,2.057l-1.308,-2.057l-5.982,-0l0,2.617l-1.122,-2.617l-11.029,-0c-0.374,-0 -0.747,0.187 -1.121,0.187c-0.374,-0 -0.561,0.187 -0.935,0.374c-0.374,0.187 -0.561,0.187 -0.935,0.374l0,-0.935l-31.591,-0l-0.935,2.43l-0.935,-2.43l-7.477,-0l0,2.617l-1.121,-2.617l-5.982,-0l-2.617,6.356l0,8.412l4.299,-0l0.748,-2.056l1.495,-0l0.748,2.056l32.9,-0l0,-1.869l1.309,1.869l9.159,-0l0,-1.122c0.187,0.187 0.561,0.187 0.748,0.374c0.187,0.187 0.561,0.187 0.748,0.374c0.374,0.187 0.748,0.187 1.121,0.187l6.73,-0l0.748,-2.056l1.495,-0l0.748,2.056l9.16,-0l0,-1.869l1.495,2.056Zm10.281,18.693l0,-13.833l-51.406,-0l-1.309,1.87l-1.308,-1.87l-14.955,-0l0,14.768l14.955,-0l1.308,-1.869l1.309,1.869l9.347,-0l0,-3.178l-0.374,-0c1.308,-0 2.43,-0.187 3.364,-0.561l0,3.926l6.73,-0l0,-1.869l1.309,1.869l27.852,-0c1.122,-0.374 2.244,-0.561 3.178,-1.122Z" style="fill:#fff;fill-rule:nonzero;"/><path id="path9" d="M731.305,60.689l-5.047,-0l0,2.056l4.861,-0c2.056,-0 3.364,-1.309 3.364,-3.178c0,-1.869 -1.121,-2.804 -2.991,-2.804l-2.243,-0c-0.561,-0 -0.934,-0.374 -0.934,-0.935c0,-0.56 0.373,-0.934 0.934,-0.934l4.3,-0l0.934,-2.057l-5.047,-0c-2.056,-0 -3.365,1.309 -3.365,2.991c0,1.87 1.122,2.804 2.991,2.804l2.243,-0c0.561,-0 0.935,0.374 0.935,0.935c0.187,0.748 -0.187,1.122 -0.935,1.122Zm-9.159,-0l-5.047,-0l0,2.056l4.86,-0c2.056,-0 3.365,-1.309 3.365,-3.178c0,-1.869 -1.122,-2.804 -2.991,-2.804l-2.243,-0c-0.561,-0 -0.935,-0.374 -0.935,-0.935c0,-0.56 0.374,-0.934 0.935,-0.934l4.299,-0l0.935,-2.057l-5.048,-0c-2.056,-0 -3.364,1.309 -3.364,2.991c0,1.87 1.121,2.804 2.991,2.804l2.243,-0c0.561,-0 0.934,0.374 0.934,0.935c0.187,0.748 -0.373,1.122 -0.934,1.122Zm-6.543,-5.982l0,-2.057l-7.851,-0l0,9.908l7.851,-0l0,-2.056l-5.608,-0l0,-2.057l5.421,-0l0,-2.056l-5.421,-0l0,-1.869l5.608,-0l0,0.187Zm-12.711,-0c0.934,-0 1.308,0.561 1.308,1.121c0,0.561 -0.374,1.122 -1.308,1.122l-2.804,-0l0,-2.43l2.804,0.187Zm-2.804,4.299l1.121,-0l2.991,3.552l2.804,-0l-3.365,-3.739c1.683,-0.374 2.618,-1.495 2.618,-2.991c0,-1.869 -1.309,-3.178 -3.365,-3.178l-5.234,-0l0,9.908l2.243,-0l0.187,-3.552Zm-5.982,-2.991c0,0.748 -0.374,1.309 -1.309,1.309l-2.991,-0l0,-2.617l2.804,-0c0.935,-0 1.496,0.561 1.496,1.308Zm-6.543,-3.365l0,9.908l2.243,-0l0,-3.365l2.991,-0c2.057,-0 3.552,-1.308 3.552,-3.365c0,-1.869 -1.308,-3.364 -3.365,-3.364l-5.421,0.186Zm-3.365,9.908l2.804,-0l-3.925,-5.047l3.925,-4.861l-2.804,-0l-2.43,3.178l-2.43,-3.178l-2.804,-0l3.926,4.861l-3.926,4.86l2.804,-0l2.43,-3.178l2.43,3.365Zm-8.411,-7.851l0,-2.057l-7.852,-0l0,9.908l7.852,-0l0,-2.056l-5.608,-0l0,-2.057l5.421,-0l0,-2.056l-5.421,-0l0,-1.869l5.608,-0l0,0.187Zm45.424,-17.572l3.926,5.982l2.804,-0l0,-9.908l-2.244,-0l0,6.543l-0.56,-0.935l-3.552,-5.608l-2.991,-0l0,9.908l2.243,-0l0,-6.73l0.374,0.748Zm-9.72,-0.187l0.747,-2.056l0.748,2.056l0.935,2.243l-3.365,-0l0.935,-2.243Zm3.925,6.169l2.43,-0l-4.299,-9.908l-2.991,-0l-4.299,9.908l2.43,-0l0.934,-2.056l4.861,-0l0.934,2.056Zm-10.468,-0l0.935,-2.056l-0.561,-0c-1.683,-0 -2.617,-1.122 -2.617,-2.804l0,-0.187c0,-1.683 0.934,-2.804 2.617,-2.804l2.43,-0l0,-2.057l-2.617,-0c-2.991,-0 -4.673,2.057 -4.673,4.861l0,0.187c0,2.991 1.682,4.86 4.486,4.86Zm-8.412,-0l2.243,-0l0,-9.721l-2.243,-0l0,9.721Zm-4.86,-7.851c0.934,-0 1.308,0.561 1.308,1.121c0,0.561 -0.374,1.122 -1.308,1.122l-2.804,-0l0,-2.43l2.804,0.187Zm-2.804,4.299l1.121,-0l2.991,3.552l2.804,-0l-3.364,-3.739c1.682,-0.374 2.617,-1.495 2.617,-2.991c0,-1.869 -1.309,-3.178 -3.365,-3.178l-5.234,-0l0,9.908l2.243,-0l0.187,-3.552Zm-4.113,-4.299l0,-2.057l-7.851,-0l0,9.908l7.851,-0l0,-2.056l-5.608,-0l0,-2.057l5.421,-0l0,-2.056l-5.421,-0l0,-1.869l5.608,-0l0,0.187Zm-17.011,7.851l2.057,-0l2.804,-8.038l0,8.038l2.243,-0l0,-9.908l-3.739,-0l-2.243,6.73l-2.243,-6.73l-3.739,-0l0,9.908l2.243,-0l0,-8.038l2.617,8.038Zm-12.15,-6.169l0.748,-2.056l0.747,2.056l0.935,2.243l-3.365,-0l0.935,-2.243Zm3.925,6.169l2.43,-0l-4.299,-9.908l-2.804,-0l-4.299,9.908l2.43,-0l0.934,-2.056l4.861,-0l0.747,2.056Z" style="fill:#006fcf;fill-rule:nonzero;"/></g></g><g id="Elo"><g id="g56"><path id="path58" d="M477.04,28.45c2.076,-0.695 4.295,-1.068 6.607,-1.068c10.07,0 18.478,7.154 20.406,16.668l14.279,-2.916c-3.276,-16.158 -17.56,-28.324 -34.685,-28.324c-3.93,0 -7.7,0.638 -11.227,1.818l4.62,13.822Z" style="fill:#fbc707;fill-rule:nonzero;"/></g><g id="g60"><path id="path62" d="M460.188,74.726l9.659,-10.918c-4.312,-3.82 -7.031,-9.392 -7.031,-15.6c0,-6.205 2.716,-11.774 7.023,-15.59l-9.659,-10.919c-7.322,6.485 -11.94,15.959 -11.94,26.509c0,10.556 4.623,20.032 11.948,26.518" style="fill:#38a7e4;fill-rule:nonzero;"/></g><g id="g64"><path id="path66" d="M504.048,52.389c-1.932,9.502 -10.334,16.646 -20.402,16.646c-2.314,0 -4.538,-0.373 -6.612,-1.072l-4.626,13.824c3.528,1.182 7.306,1.816 11.238,1.816c17.11,0 31.391,-12.141 34.68,-28.29l-14.278,-2.924Z" style="fill:#ef3120;fill-rule:nonzero;"/></g><g id="g68"><path id="path70" d="M559.352,59.961c-0.005,0.006 -0.008,0.009 -0.01,0.016l-0.408,-0.278c-1.17,1.9 -2.991,3.436 -5.295,4.432c-4.383,1.907 -8.443,1.418 -11.357,-1.14l-0.268,0.406l-0.006,-0.007l-4.976,7.439c1.235,0.856 2.56,1.585 3.954,2.165c5.492,2.28 11.112,2.173 16.648,-0.233c4.002,-1.732 7.145,-4.38 9.294,-7.735l-7.576,-5.065Zm-15.524,-18.351c-4.621,1.988 -7.009,6.327 -6.517,11.417l19.596,-8.436c-3.367,-3.962 -7.755,-5.273 -13.079,-2.981m-13.009,22.659c-0.469,-0.758 -1.105,-1.972 -1.488,-2.863c-2.26,-5.249 -2.369,-10.681 -0.46,-15.896c2.099,-5.721 6.112,-10.099 11.291,-12.328c6.518,-2.805 13.724,-2.249 19.969,1.453c3.964,2.275 6.776,5.788 8.912,10.756c0.273,0.636 0.509,1.319 0.744,1.895l-38.968,16.983Z" style="fill:#231f20;fill-rule:nonzero;"/></g><g id="g72"><path id="path74" d="M583.41,22.226l0,41.357l6.429,2.604l-3.653,8.523l-7.096,-2.95c-1.595,-0.692 -2.678,-1.748 -3.5,-2.94c-0.782,-1.214 -1.371,-2.881 -1.371,-5.124l0,-41.47l9.191,0Z" style="fill:#231f20;fill-rule:nonzero;"/></g><g id="g76"><path id="path78" d="M600.066,53.045c0.003,-3.52 1.56,-6.678 4.019,-8.825l-6.598,-7.353c-4.473,3.956 -7.288,9.73 -7.296,16.169c-0.008,6.445 2.804,12.227 7.279,16.192l6.585,-7.364c-2.445,-2.152 -3.992,-5.305 -3.989,-8.819" style="fill:#231f20;fill-rule:nonzero;"/></g><g id="g80"><path id="path82" d="M611.785,64.783c-1.3,-0.003 -2.547,-0.219 -3.716,-0.608l-3.151,9.371c2.153,0.722 4.463,1.114 6.859,1.117c10.442,0.009 19.166,-7.401 21.188,-17.253l-9.686,-1.975c-1.098,5.339 -5.83,9.353 -11.494,9.348" style="fill:#231f20;fill-rule:nonzero;"/></g><g id="g84"><path id="path86" d="M611.813,31.449c-2.396,-0.003 -4.697,0.387 -6.852,1.103l3.126,9.376c1.169,-0.386 2.42,-0.602 3.718,-0.602c5.678,0.007 10.41,4.044 11.482,9.399l9.685,-1.967c-1.989,-9.864 -10.703,-17.302 -21.159,-17.309" style="fill:#231f20;fill-rule:nonzero;"/></g></g><path id="path2997" d="M1108.94,75.829l-106.172,0.038l0,-0.128c0,-0.07 0.085,-0.526 0.189,-1.013c0.103,-0.486 0.264,-1.26 0.357,-1.719c0.093,-0.46 0.253,-1.24 0.354,-1.735c0.102,-0.495 0.27,-1.319 0.375,-1.831c0.104,-0.513 0.268,-1.322 0.364,-1.799c0.096,-0.477 0.255,-1.258 0.355,-1.735c0.1,-0.477 0.269,-1.301 0.377,-1.831c0.108,-0.53 0.272,-1.34 0.365,-1.799c0.092,-0.459 0.239,-1.168 0.327,-1.574c0.087,-0.407 0.198,-0.956 0.247,-1.221c0.049,-0.265 0.206,-1.046 0.35,-1.735c0.144,-0.689 0.303,-1.469 0.353,-1.734c0.05,-0.265 0.21,-1.046 0.355,-1.735c0.144,-0.689 0.303,-1.47 0.353,-1.735c0.05,-0.265 0.209,-1.045 0.355,-1.735c0.146,-0.689 0.303,-1.455 0.35,-1.702c0.047,-0.247 0.174,-0.884 0.283,-1.414c0.11,-0.53 0.316,-1.527 0.46,-2.216c0.143,-0.689 0.388,-1.889 0.545,-2.667c0.156,-0.777 0.343,-1.702 0.415,-2.056c0.072,-0.353 0.203,-0.989 0.29,-1.413c0.087,-0.424 0.245,-1.19 0.351,-1.703c0.107,-0.512 0.28,-1.35 0.385,-1.863c0.105,-0.512 0.267,-1.307 0.36,-1.767c0.092,-0.459 0.251,-1.225 0.352,-1.702c0.101,-0.477 0.274,-1.316 0.385,-1.864c0.111,-0.547 0.297,-1.386 0.414,-1.863c0.116,-0.477 0.281,-1.055 0.365,-1.285c0.085,-0.229 0.319,-0.727 0.52,-1.106l0.366,-0.689l0.333,-0.436c0.183,-0.239 0.509,-0.618 0.725,-0.841c0.217,-0.223 0.581,-0.558 0.811,-0.746c0.23,-0.187 0.562,-0.439 0.739,-0.561c0.177,-0.122 0.524,-0.334 0.771,-0.473c0.247,-0.139 0.594,-0.32 0.771,-0.403c0.177,-0.083 0.538,-0.235 0.803,-0.338c0.265,-0.102 0.771,-0.274 1.124,-0.381c0.354,-0.108 1.017,-0.269 1.474,-0.36c0.458,-0.09 1.181,-0.211 1.607,-0.268l0.774,-0.104l53.118,-0.021l53.118,-0.02l0,0.128c0,0.07 -0.085,0.526 -0.189,1.012c-0.104,0.487 -0.278,1.319 -0.387,1.849c-0.108,0.53 -0.267,1.296 -0.352,1.702c-0.085,0.407 -0.246,1.187 -0.358,1.735c-0.112,0.548 -0.284,1.386 -0.382,1.863c-0.099,0.477 -0.258,1.258 -0.355,1.735c-0.096,0.477 -0.256,1.258 -0.356,1.735c-0.1,0.477 -0.254,1.228 -0.343,1.67c-0.089,0.442 -0.251,1.237 -0.359,1.767c-0.108,0.53 -0.282,1.369 -0.386,1.863c-0.104,0.495 -0.263,1.261 -0.352,1.703c-0.09,0.442 -0.252,1.237 -0.359,1.767c-0.108,0.53 -0.281,1.368 -0.385,1.863c-0.104,0.495 -0.26,1.246 -0.345,1.67c-0.086,0.424 -0.247,1.22 -0.358,1.767c-0.111,0.548 -0.273,1.343 -0.36,1.767c-0.087,0.424 -0.242,1.176 -0.345,1.671c-0.103,0.494 -0.278,1.347 -0.39,1.895c-0.112,0.548 -0.273,1.328 -0.357,1.735c-0.084,0.406 -0.241,1.172 -0.349,1.702c-0.108,0.53 -0.28,1.369 -0.382,1.864c-0.102,0.494 -0.262,1.275 -0.356,1.734c-0.093,0.46 -0.256,1.255 -0.361,1.767c-0.106,0.512 -0.277,1.351 -0.382,1.863c-0.105,0.513 -0.262,1.279 -0.35,1.703c-0.087,0.424 -0.246,1.205 -0.354,1.735c-0.108,0.53 -0.283,1.365 -0.389,1.856l-0.194,0.892l-0.23,0.618c-0.127,0.339 -0.317,0.791 -0.424,1.003c-0.106,0.212 -0.322,0.586 -0.48,0.831c-0.158,0.245 -0.378,0.559 -0.49,0.698c-0.111,0.139 -0.446,0.497 -0.744,0.796l-0.542,0.544l-0.521,0.371c-0.287,0.204 -0.596,0.411 -0.687,0.46c-0.09,0.05 -0.436,0.226 -0.767,0.392c-0.332,0.166 -0.8,0.378 -1.041,0.47c-0.241,0.092 -0.718,0.249 -1.06,0.349c-0.342,0.099 -0.709,0.197 -0.815,0.218c-0.106,0.02 -0.474,0.096 -0.818,0.169c-0.344,0.073 -1.038,0.181 -1.542,0.242l-0.917,0.109Zm-73.354,-13.713l2.763,0l0.039,-0.101c0.021,-0.056 0.039,-0.188 0.039,-0.292c0,-0.105 0.045,-0.486 0.101,-0.846c0.056,-0.361 0.186,-1.191 0.29,-1.845c0.104,-0.653 0.26,-1.636 0.346,-2.184c0.086,-0.548 0.192,-1.249 0.234,-1.558c0.043,-0.309 0.095,-0.562 0.115,-0.562c0.021,0 0.111,0.136 0.199,0.303l0.16,0.304l0.357,0.359l0.356,0.359l0.438,0.175l0.439,0.176l0.522,0.067l0.523,0.068l0.663,-0.041l0.663,-0.04l1.436,-0.372l0.386,-0.176c0.212,-0.097 0.588,-0.308 0.835,-0.469l0.45,-0.293l0.419,-0.419c0.231,-0.23 0.556,-0.6 0.723,-0.821c0.167,-0.221 0.303,-0.419 0.303,-0.438c0,-0.02 0.082,-0.157 0.183,-0.305c0.1,-0.148 0.305,-0.558 0.455,-0.911c0.151,-0.353 0.386,-0.989 0.523,-1.413l0.249,-0.771l0.129,-0.668c0.071,-0.368 0.162,-0.975 0.202,-1.349l0.074,-0.682l-0.085,-1.156l-0.268,-1.157l-0.435,-0.866l-0.838,-0.888l-0.496,-0.257l-0.496,-0.256l-1.092,-0.262l-1.092,-0.08l-0.609,0.07l-0.608,0.07l-0.496,0.127l-0.497,0.127l-0.431,0.199c-0.238,0.11 -0.583,0.297 -0.767,0.415c-0.185,0.118 -0.376,0.254 -0.424,0.302c-0.048,0.048 -0.163,0.137 -0.256,0.197l-0.169,0.111l0.118,-0.565c0.065,-0.31 0.119,-0.6 0.121,-0.644l0.002,-0.081l-2.356,0l-0.206,1.301c-0.114,0.716 -0.293,1.822 -0.399,2.458c-0.105,0.636 -0.265,1.59 -0.354,2.12c-0.089,0.53 -0.248,1.47 -0.353,2.088c-0.105,0.619 -0.278,1.602 -0.386,2.185c-0.107,0.583 -0.264,1.436 -0.349,1.895c-0.084,0.459 -0.244,1.327 -0.354,1.928c-0.11,0.6 -0.287,1.554 -0.394,2.12c-0.106,0.565 -0.279,1.461 -0.384,1.991c-0.105,0.531 -0.207,1.029 -0.226,1.109l-0.035,0.144Zm7.328,-7.428l-0.536,0.032l-0.351,-0.062l-0.35,-0.062l-0.712,-0.325l-0.249,-0.237l-0.249,-0.238l-0.144,-0.321c-0.079,-0.177 -0.18,-0.477 -0.225,-0.667l-0.082,-0.346l0.033,-0.554l0.033,-0.553l0.165,-0.868c0.091,-0.477 0.255,-1.373 0.364,-1.991c0.108,-0.619 0.273,-1.525 0.365,-2.014l0.169,-0.889l0.368,-0.307c0.203,-0.168 0.523,-0.394 0.713,-0.502l0.345,-0.195l0.899,-0.279l1.157,-0.068l0.941,0.201l0.665,0.306l0.279,0.28l0.278,0.28l0.151,0.297c0.082,0.163 0.198,0.482 0.258,0.71l0.107,0.413l-0.033,1.22l-0.033,1.221l-0.165,0.722c-0.09,0.397 -0.263,1.004 -0.384,1.349l-0.218,0.628l-0.269,0.508c-0.147,0.279 -0.374,0.657 -0.505,0.839c-0.13,0.182 -0.338,0.418 -0.462,0.524c-0.124,0.106 -0.331,0.272 -0.46,0.369l-0.236,0.176l-0.545,0.185l-0.545,0.186l-0.537,0.032Zm13.342,1.766l0.707,0.008l0.706,-0.064c0.389,-0.036 1.025,-0.109 1.414,-0.164c0.389,-0.055 1.06,-0.178 1.492,-0.273l0.786,-0.172l0.039,-0.29c0.021,-0.159 0.109,-0.633 0.196,-1.053l0.157,-0.764l-0.07,-0.07l-0.24,0.116c-0.132,0.064 -0.543,0.216 -0.914,0.338l-0.674,0.223l-1.415,0.274l-2.248,0.004l-0.386,-0.123c-0.212,-0.068 -0.524,-0.192 -0.693,-0.275l-0.307,-0.153l-0.508,-0.458l-0.396,-0.692l-0.248,-0.869l-0.002,-1.606l0.11,-0.717l0.11,-0.716l0.967,-0.046l0.967,-0.045l7.148,0.046l0.108,-0.458c0.059,-0.251 0.15,-0.772 0.202,-1.156l0.093,-0.699l0.004,-1.175l-0.203,-0.878l-0.169,-0.291c-0.092,-0.159 -0.255,-0.391 -0.362,-0.514c-0.107,-0.123 -0.297,-0.297 -0.423,-0.386c-0.127,-0.089 -0.374,-0.239 -0.551,-0.333l-0.321,-0.171l-1.123,-0.271l-0.692,-0.066l-0.691,-0.066l-1.285,0.084l-1.542,0.296l-0.482,0.193c-0.265,0.106 -0.67,0.299 -0.899,0.429c-0.23,0.13 -0.548,0.342 -0.707,0.471c-0.159,0.129 -0.435,0.379 -0.612,0.557c-0.178,0.177 -0.44,0.496 -0.583,0.708c-0.144,0.212 -0.364,0.588 -0.489,0.835c-0.125,0.247 -0.288,0.594 -0.363,0.771c-0.074,0.177 -0.209,0.538 -0.3,0.803c-0.09,0.265 -0.233,0.771 -0.316,1.124c-0.084,0.354 -0.198,0.935 -0.254,1.293l-0.103,0.65l0.002,1.912l0.098,0.418c0.053,0.23 0.156,0.577 0.228,0.771c0.072,0.194 0.204,0.483 0.295,0.642c0.09,0.159 0.284,0.415 0.429,0.569c0.146,0.154 0.41,0.388 0.586,0.519c0.177,0.132 0.492,0.317 0.699,0.411l0.378,0.172l0.527,0.128c0.29,0.07 0.727,0.153 0.971,0.184c0.245,0.031 0.763,0.061 1.152,0.065Zm1.21,-9.051c-1.779,0 -3.234,-0.012 -3.234,-0.028c0,-0.016 0.076,-0.24 0.169,-0.498c0.092,-0.258 0.255,-0.643 0.362,-0.854l0.193,-0.385l0.85,-0.845l0.418,-0.2c0.229,-0.11 0.533,-0.23 0.674,-0.266c0.142,-0.036 0.547,-0.084 0.9,-0.107l0.642,-0.041l0.494,0.063l0.493,0.064l0.359,0.164l0.358,0.164l0.197,0.212c0.108,0.117 0.237,0.289 0.286,0.382l0.09,0.169l0.119,0.753l-0.136,1.253l-3.234,0Zm19.222,9.052l0.707,0.007l0.802,-0.095c0.442,-0.052 1.03,-0.139 1.306,-0.192c0.277,-0.054 0.725,-0.161 0.996,-0.237c0.271,-0.077 0.516,-0.159 0.545,-0.184c0.029,-0.025 0.105,-0.316 0.17,-0.648c0.065,-0.332 0.147,-0.777 0.182,-0.989c0.035,-0.212 0.053,-0.397 0.04,-0.41c-0.013,-0.014 -0.06,0.004 -0.105,0.039c-0.045,0.036 -0.361,0.169 -0.701,0.295l-0.619,0.23l-0.881,0.171l-0.881,0.17l-0.749,-0.025l-0.749,-0.026l-0.425,-0.147l-0.426,-0.148l-0.328,-0.287l-0.329,-0.288l-0.436,-0.794l-0.208,-1.063l0.001,-1.379l0.127,-0.835l0.126,-0.835l0.133,-0.45c0.074,-0.247 0.157,-0.537 0.185,-0.643c0.028,-0.106 0.146,-0.409 0.262,-0.674c0.116,-0.265 0.322,-0.675 0.459,-0.91l0.249,-0.429l0.305,-0.316l0.306,-0.317l0.323,-0.2l0.324,-0.201l0.415,-0.128c0.229,-0.07 0.632,-0.162 0.897,-0.203l0.482,-0.075l1.414,0.071l1.67,0.334l0.34,0.127c0.187,0.07 0.348,0.127 0.358,0.127c0.01,0 0.055,-0.239 0.099,-0.531c0.045,-0.291 0.125,-0.771 0.178,-1.065c0.052,-0.295 0.083,-0.549 0.067,-0.564c-0.015,-0.016 -0.266,-0.056 -0.558,-0.089c-0.291,-0.033 -1.083,-0.092 -1.76,-0.131l-1.229,-0.071l-1.735,0.133l-0.643,0.135l-0.642,0.135l-0.414,0.166c-0.228,0.091 -0.561,0.255 -0.741,0.365c-0.18,0.11 -0.408,0.257 -0.508,0.328c-0.1,0.071 -0.404,0.346 -0.674,0.613l-0.492,0.484l-0.275,0.402c-0.151,0.222 -0.412,0.683 -0.581,1.026l-0.306,0.623l-0.235,0.675c-0.129,0.371 -0.309,0.978 -0.4,1.349l-0.166,0.675l-0.12,1.22l0.001,1.607l0.122,0.934l0.192,0.481l0.193,0.48l0.222,0.348l0.222,0.347l0.707,0.696l0.748,0.395l0.491,0.136c0.27,0.075 0.66,0.162 0.867,0.192c0.207,0.03 0.695,0.058 1.084,0.063l-0.001,0Zm10.568,-0.024l0.867,-0.025l0.547,-0.14l0.546,-0.14l0.353,-0.167c0.194,-0.092 0.512,-0.273 0.707,-0.403c0.194,-0.13 0.495,-0.376 0.668,-0.548c0.174,-0.172 0.431,-0.465 0.572,-0.651c0.14,-0.187 0.264,-0.331 0.274,-0.321c0.011,0.011 -0.022,0.308 -0.072,0.661c-0.05,0.352 -0.091,0.822 -0.092,1.043l-0.001,0.401l2.358,0l0.036,-0.915l0.037,-0.916l0.168,-1.189c0.092,-0.653 0.242,-1.622 0.332,-2.152c0.09,-0.53 0.247,-1.426 0.348,-1.992c0.101,-0.565 0.262,-1.447 0.357,-1.959l0.172,-0.932l0.006,-0.805l0.006,-0.804l-0.364,-0.744l-0.493,-0.474l-0.405,-0.205l-0.406,-0.205l-0.603,-0.135l-0.604,-0.134l-1.662,-0.126l-1.071,0.066c-0.589,0.036 -1.418,0.108 -1.842,0.16l-0.771,0.093l-1.051,0.004l-0.076,0.37c-0.042,0.203 -0.159,0.686 -0.26,1.072c-0.101,0.387 -0.174,0.713 -0.162,0.725c0.011,0.011 0.292,-0.053 0.624,-0.142c0.332,-0.09 1.037,-0.237 1.568,-0.327l0.963,-0.164l1.735,-0.071l0.559,0.098l0.558,0.097l0.373,0.185l0.373,0.184l0.418,0.622l-0.006,0.981l-0.111,0.539l-0.11,0.538l-2.312,0.009l-2.312,0.008l-0.757,0.207c-0.416,0.115 -0.877,0.266 -1.024,0.337c-0.147,0.071 -0.294,0.129 -0.326,0.129c-0.033,0 -0.281,0.138 -0.551,0.305l-0.49,0.305l-0.387,0.386c-0.212,0.212 -0.484,0.53 -0.603,0.707c-0.119,0.177 -0.313,0.546 -0.431,0.82l-0.214,0.499l-0.196,1.122l0,1.178l0.188,0.98l0.174,0.319c0.095,0.176 0.271,0.434 0.39,0.573l0.216,0.252l0.384,0.234l0.385,0.233l0.44,0.125c0.241,0.068 0.61,0.151 0.818,0.184l0.378,0.06l0.868,-0.025l-0.001,0Zm1.317,-1.824l-1.028,0.054l-0.34,-0.087c-0.187,-0.047 -0.472,-0.154 -0.632,-0.236l-0.29,-0.15l-0.159,-0.188c-0.088,-0.104 -0.221,-0.308 -0.297,-0.453l-0.137,-0.265l-0.027,-0.618l-0.027,-0.617l0.109,-0.375c0.059,-0.206 0.2,-0.563 0.312,-0.794l0.203,-0.42l0.39,-0.387l0.389,-0.387l0.827,-0.398l1.028,-0.244l3.213,0l0.102,0.042l0.101,0.042l-0.085,0.504c-0.047,0.277 -0.16,0.779 -0.25,1.114c-0.09,0.336 -0.249,0.829 -0.353,1.097c-0.104,0.267 -0.19,0.504 -0.19,0.525c0,0.022 -0.105,0.217 -0.234,0.433l-0.235,0.394l-0.385,0.382c-0.212,0.21 -0.409,0.382 -0.437,0.382c-0.029,0 -0.159,0.072 -0.289,0.16l-0.237,0.161l-0.521,0.165l-0.521,0.164Zm20.399,1.847l0.611,0.007l0.578,-0.093c0.318,-0.052 0.723,-0.135 0.899,-0.185c0.177,-0.05 0.495,-0.18 0.707,-0.289l0.386,-0.197l0.663,-0.584l0.349,-0.466c0.192,-0.256 0.366,-0.509 0.387,-0.562l0.037,-0.096l-0.032,0.321c-0.018,0.177 -0.058,0.466 -0.089,0.643c-0.031,0.176 -0.076,0.516 -0.099,0.754l-0.043,0.434l2.521,0l0,-0.867l0.192,-1.639c0.106,-0.901 0.262,-2.101 0.347,-2.666c0.085,-0.565 0.217,-1.375 0.292,-1.799c0.076,-0.424 0.21,-1.19 0.298,-1.702c0.088,-0.513 0.247,-1.409 0.353,-1.992c0.107,-0.583 0.277,-1.508 0.378,-2.056c0.102,-0.548 0.26,-1.401 0.352,-1.896c0.091,-0.494 0.255,-1.362 0.364,-1.927c0.108,-0.565 0.267,-1.36 0.353,-1.767c0.085,-0.406 0.155,-0.76 0.155,-0.787l0,-0.048l-2.75,0l-0.041,0.401c-0.022,0.221 -0.127,0.951 -0.234,1.623c-0.106,0.671 -0.279,1.741 -0.385,2.377c-0.105,0.636 -0.207,1.253 -0.226,1.371l-0.034,0.214l-0.109,-0.046c-0.059,-0.026 -0.383,-0.115 -0.719,-0.2l-0.61,-0.153l-1.67,-0.13l-1.414,0.132l-1.285,0.324l-1.221,0.596l-0.449,0.333l-0.45,0.333l-0.389,0.416c-0.213,0.229 -0.522,0.608 -0.685,0.842l-0.298,0.425l-0.349,0.727c-0.192,0.4 -0.426,0.929 -0.519,1.177c-0.094,0.247 -0.259,0.795 -0.367,1.218l-0.197,0.769l-0.194,1.996l0.146,1.606l0.086,0.289c0.047,0.159 0.147,0.443 0.221,0.63l0.136,0.34l0.247,0.335l0.248,0.335l0.282,0.231l0.283,0.232l0.385,0.191c0.212,0.105 0.568,0.241 0.79,0.302c0.223,0.061 0.585,0.135 0.804,0.163c0.219,0.029 0.672,0.056 1.008,0.06Zm1.581,-1.849l-0.97,0.052l-0.328,-0.059c-0.18,-0.033 -0.468,-0.12 -0.64,-0.193l-0.313,-0.134l-0.263,-0.216l-0.264,-0.216l-0.195,-0.375l-0.196,-0.375l-0.089,-0.417l-0.09,-0.418l0.016,-1.67l0.207,-1.478l0.161,-0.514c0.088,-0.283 0.161,-0.55 0.162,-0.593c0,-0.043 0.088,-0.274 0.194,-0.514c0.106,-0.239 0.284,-0.609 0.395,-0.821c0.11,-0.212 0.317,-0.542 0.46,-0.734c0.142,-0.192 0.395,-0.481 0.563,-0.643c0.168,-0.161 0.434,-0.373 0.592,-0.47l0.288,-0.177l1.01,-0.35l2.12,0l0.611,0.169c0.335,0.093 0.692,0.201 0.792,0.24l0.182,0.071l-0.036,0.176c-0.019,0.097 -0.096,0.523 -0.17,0.947c-0.073,0.424 -0.219,1.234 -0.323,1.799c-0.104,0.566 -0.263,1.419 -0.355,1.896c-0.091,0.477 -0.223,1.084 -0.293,1.349c-0.071,0.265 -0.17,0.632 -0.221,0.816c-0.051,0.183 -0.172,0.501 -0.269,0.706c-0.098,0.206 -0.268,0.503 -0.379,0.662c-0.11,0.159 -0.298,0.38 -0.416,0.49c-0.118,0.11 -0.374,0.306 -0.568,0.435l-0.354,0.235l-0.51,0.162l-0.511,0.162Zm-96.605,1.536l3.122,0l0.112,-0.691c0.062,-0.379 0.182,-1.109 0.267,-1.622c0.086,-0.512 0.245,-1.466 0.354,-2.12c0.109,-0.654 0.272,-1.622 0.363,-2.152c0.09,-0.53 0.234,-1.353 0.32,-1.828c0.085,-0.474 0.171,-0.879 0.191,-0.899l0.036,-0.036l8.395,0l0.047,0.046l0.046,0.047l-0.072,0.371c-0.04,0.204 -0.159,0.834 -0.264,1.399c-0.104,0.566 -0.28,1.52 -0.391,2.12c-0.11,0.601 -0.27,1.454 -0.354,1.896c-0.085,0.441 -0.257,1.367 -0.382,2.056c-0.124,0.689 -0.226,1.289 -0.226,1.333l0.001,0.08l3.135,0l0.069,-0.401c0.038,-0.221 0.1,-0.619 0.137,-0.884c0.036,-0.265 0.125,-0.829 0.197,-1.253c0.072,-0.424 0.215,-1.262 0.319,-1.863c0.103,-0.601 0.276,-1.627 0.385,-2.281c0.108,-0.653 0.268,-1.608 0.356,-2.12c0.088,-0.512 0.245,-1.38 0.349,-1.927c0.103,-0.548 0.276,-1.473 0.383,-2.056c0.108,-0.583 0.269,-1.465 0.358,-1.96c0.089,-0.495 0.252,-1.391 0.361,-1.992c0.11,-0.6 0.248,-1.302 0.308,-1.558l0.108,-0.466l-3.174,0l-0.043,0.306c-0.024,0.167 -0.101,0.637 -0.171,1.044c-0.069,0.406 -0.197,1.129 -0.282,1.606c-0.086,0.477 -0.242,1.388 -0.348,2.024c-0.106,0.636 -0.24,1.478 -0.299,1.871l-0.107,0.714l-2.33,0.048l-2.33,0.047l-1.951,-0.047c-1.073,-0.025 -1.958,-0.051 -1.965,-0.057c-0.007,-0.006 0.03,-0.256 0.081,-0.555c0.052,-0.299 0.151,-0.818 0.219,-1.154c0.068,-0.336 0.197,-1.001 0.287,-1.478c0.09,-0.477 0.192,-1.069 0.226,-1.317c0.035,-0.247 0.107,-0.659 0.161,-0.915c0.054,-0.257 0.156,-0.796 0.227,-1.2c0.071,-0.403 0.147,-0.779 0.168,-0.835l0.04,-0.102l-3.149,0l-0.101,0.563c-0.055,0.309 -0.129,0.75 -0.164,0.979c-0.035,0.23 -0.152,0.967 -0.261,1.639c-0.108,0.671 -0.268,1.669 -0.355,2.216c-0.088,0.548 -0.246,1.546 -0.353,2.217c-0.107,0.671 -0.283,1.712 -0.392,2.313c-0.109,0.601 -0.266,1.454 -0.35,1.895c-0.083,0.442 -0.243,1.28 -0.354,1.863c-0.111,0.584 -0.273,1.408 -0.36,1.832c-0.087,0.424 -0.183,0.915 -0.214,1.092c-0.03,0.176 -0.13,0.686 -0.221,1.132c-0.091,0.446 -0.165,0.858 -0.165,0.916l0,0.104Zm17.461,0l2.764,0l0.039,-0.101c0.021,-0.056 0.039,-0.203 0.039,-0.326c0,-0.124 0.086,-0.765 0.193,-1.425c0.106,-0.66 0.281,-1.735 0.39,-2.388c0.108,-0.654 0.268,-1.608 0.355,-2.121c0.087,-0.512 0.242,-1.365 0.345,-1.895c0.102,-0.53 0.259,-1.354 0.348,-1.831c0.09,-0.477 0.266,-1.385 0.392,-2.017c0.126,-0.632 0.245,-1.175 0.264,-1.206l0.035,-0.056l-2.795,0.034l-0.117,0.836c-0.064,0.459 -0.204,1.37 -0.311,2.024c-0.107,0.653 -0.269,1.651 -0.36,2.216c-0.09,0.566 -0.249,1.476 -0.352,2.024c-0.103,0.548 -0.26,1.386 -0.35,1.863c-0.09,0.477 -0.251,1.316 -0.358,1.863c-0.107,0.548 -0.25,1.271 -0.319,1.607c-0.068,0.335 -0.142,0.675 -0.163,0.755l-0.039,0.144Zm32.332,0l2.743,0l0.042,-0.58c0.022,-0.319 0.1,-0.963 0.172,-1.43c0.072,-0.467 0.22,-1.398 0.329,-2.07c0.108,-0.671 0.31,-1.789 0.448,-2.483c0.138,-0.695 0.294,-1.385 0.346,-1.534c0.053,-0.149 0.096,-0.311 0.096,-0.359c0,-0.049 0.103,-0.313 0.229,-0.587c0.126,-0.274 0.361,-0.693 0.522,-0.932l0.293,-0.434l0.784,-0.726l0.484,-0.231l0.483,-0.231l1.478,0.008l0.363,0.108c0.2,0.06 0.38,0.109 0.401,0.109c0.022,0 0.039,-0.068 0.039,-0.152c0,-0.083 0.072,-0.506 0.16,-0.94c0.089,-0.434 0.161,-0.807 0.161,-0.83c0,-0.022 -0.21,-0.104 -0.466,-0.182c-0.256,-0.078 -0.61,-0.159 -0.787,-0.181l-0.321,-0.04l-0.418,0.074c-0.229,0.041 -0.571,0.13 -0.759,0.199c-0.187,0.069 -0.497,0.226 -0.689,0.348c-0.191,0.122 -0.488,0.361 -0.66,0.529c-0.172,0.169 -0.462,0.51 -0.644,0.757c-0.182,0.248 -0.372,0.508 -0.423,0.579l-0.092,0.128l0.056,-0.257c0.031,-0.141 0.117,-0.604 0.19,-1.028c0.074,-0.424 0.15,-0.821 0.169,-0.883l0.034,-0.113l-2.45,0l0,0.155c0,0.085 -0.072,0.599 -0.161,1.141c-0.088,0.542 -0.234,1.448 -0.324,2.013c-0.089,0.566 -0.249,1.549 -0.354,2.185c-0.104,0.636 -0.264,1.546 -0.354,2.023c-0.089,0.477 -0.249,1.316 -0.354,1.864c-0.105,0.547 -0.279,1.444 -0.388,1.991c-0.108,0.548 -0.237,1.195 -0.287,1.438c-0.05,0.243 -0.091,0.467 -0.091,0.498l0,0.056Zm32.532,0l2.805,0l0,-0.858l0.162,-1.065c0.088,-0.585 0.235,-1.513 0.325,-2.06c0.091,-0.548 0.203,-1.242 0.251,-1.542c0.047,-0.301 0.172,-0.951 0.278,-1.446c0.106,-0.495 0.238,-1.029 0.294,-1.188c0.056,-0.16 0.102,-0.326 0.102,-0.371c0.001,-0.045 0.121,-0.334 0.266,-0.642l0.265,-0.56l0.698,-0.928l0.383,-0.287c0.21,-0.158 0.548,-0.368 0.751,-0.466l0.369,-0.179l1.606,0.011l0.316,0.102l0.317,0.101l0.106,-0.066l0.003,-0.205c0.001,-0.113 0.07,-0.532 0.153,-0.932l0.15,-0.727l-0.169,-0.067c-0.093,-0.036 -0.314,-0.111 -0.49,-0.167l-0.321,-0.101l-1.157,0.003l-0.942,0.332l-0.708,0.426l-0.92,0.964l-0.247,0.374c-0.136,0.205 -0.256,0.364 -0.266,0.353c-0.011,-0.011 0.063,-0.44 0.164,-0.952c0.101,-0.512 0.184,-0.997 0.186,-1.076l0.002,-0.145l-2.377,0l0,0.041c0,0.023 -0.059,0.435 -0.131,0.916c-0.073,0.481 -0.218,1.409 -0.324,2.063c-0.105,0.654 -0.278,1.709 -0.384,2.345c-0.105,0.636 -0.265,1.547 -0.354,2.024c-0.09,0.477 -0.248,1.316 -0.352,1.863c-0.105,0.548 -0.276,1.43 -0.382,1.96c-0.105,0.53 -0.245,1.231 -0.31,1.558l-0.118,0.594Zm-61.155,-15.679l0.78,0.002l0.31,-0.105l0.31,-0.106l0.275,-0.278l0.274,-0.279l0.145,-0.371l0.144,-0.37l0.011,-1.093l-0.129,-0.213l-0.128,-0.213l-0.448,-0.277l-0.966,0l-0.658,0.294l-0.19,0.205l-0.191,0.204l-0.15,0.354l-0.15,0.353l-0.057,1.101l0.14,0.273l0.139,0.274l0.27,0.122l0.269,0.123Z" style="fill:#b3131b;fill-rule:nonzero;"/><g><path d="M1230.35,48.505c0,-20.439 -17.06,-34.566 -35.753,-34.56l-16.085,-0c-18.916,-0.007 -34.484,14.125 -34.484,34.56c0,18.695 15.569,34.055 34.484,33.964l16.085,-0c18.691,0.09 35.753,-15.274 35.753,-33.964Z" style="fill:#0079be;fill-rule:nonzero;"/><path d="M1178.61,16.84c-17.283,0.006 -31.289,14.044 -31.295,31.37c0.005,17.323 14.01,31.359 31.295,31.365c17.288,-0.005 31.298,-14.042 31.3,-31.365c-0.002,-17.326 -14.011,-31.363 -31.3,-31.37Z" style="fill:#fff;fill-rule:nonzero;"/><path d="M1158.83,48.125c0.017,-8.466 5.294,-15.686 12.735,-18.555l0,37.106c-7.441,-2.868 -12.718,-10.083 -12.735,-18.551Zm26.933,18.561l0,-37.115c7.444,2.862 12.729,10.086 12.743,18.556c-0.014,8.473 -5.299,15.692 -12.743,18.559Z" style="fill:#0079be;fill-rule:nonzero;"/></g><g id="Layer_2"><g id="Layer_1-21" serif:id="Layer_1-2"><path d="M755.662,13.377l105.376,0l0.113,32.84c-12.721,-4.839 -53.196,-16.418 -105.489,-1.988l0,-30.852Z" style="fill-rule:nonzero;"/><path d="M755.662,83.036l105.376,0l0,-26.273c-19.005,-6.36 -52.787,-15.891 -105.376,-2.388l0,28.661Z" style="fill:#fff200;fill-rule:nonzero;"/><path d="M861.038,56.763c-19.005,-6.36 -52.787,-15.891 -105.376,-2.388l0,-10.146c52.293,-14.43 92.768,-2.835 105.489,1.988l-0.113,10.546Z" style="fill:#ed1c24;fill-rule:nonzero;"/><path d="M789.23,38.042c2.607,-7.207 8.575,-13.429 18.944,-13.361c10.369,0.069 17.284,5.992 19.15,13.742c-13.36,-1.389 -22.268,-1.632 -38.094,-0.381Z" style="fill:#fff200;fill-rule:nonzero;"/><path d="M779.205,69.727l7.057,-10.526l2.599,0l7.519,10.526l-2.753,0l-2.142,-3.186l-7.693,0l-2.024,3.186l-2.563,0Zm5.3,-4.32l6.231,0l-1.919,-2.911c-0.475,-0.701 -0.909,-1.43 -1.3,-2.182c-0.249,0.712 -0.582,1.392 -0.992,2.025l-2.024,3.081l0.004,-0.013Zm24.236,4.32l0,-1.117c-1.04,0.861 -2.448,1.292 -4.227,1.292c-0.741,0.005 -1.479,-0.08 -2.199,-0.256c-0.543,-0.111 -1.058,-0.331 -1.514,-0.647c-0.32,-0.245 -0.562,-0.577 -0.696,-0.956c-0.109,-0.395 -0.156,-0.805 -0.138,-1.214l0,-4.717l2.255,0l0,4.223c-0.025,0.459 0.022,0.919 0.138,1.364c0.182,0.379 0.507,0.67 0.903,0.81c0.545,0.207 1.125,0.305 1.708,0.287c0.646,0.005 1.289,-0.095 1.903,-0.295c0.495,-0.131 0.935,-0.414 1.259,-0.81c0.277,-0.446 0.407,-0.967 0.373,-1.49l0,-4.089l2.255,0l0,7.615l-2.02,0Zm7.49,0l0,-7.615l2.024,0l0,1.154c0.399,-0.454 0.888,-0.818 1.437,-1.069c0.462,-0.177 0.952,-0.264 1.446,-0.259c0.791,0.002 1.575,0.139 2.32,0.405l-0.778,1.214c-0.531,-0.186 -1.089,-0.282 -1.651,-0.283c-0.457,-0.007 -0.911,0.079 -1.333,0.255c-0.351,0.135 -0.646,0.385 -0.838,0.708c-0.252,0.462 -0.382,0.98 -0.376,1.506l0,3.988l-2.251,-0.004Zm19.219,-0.939c-0.773,0.382 -1.588,0.672 -2.429,0.863c-0.819,0.171 -1.654,0.255 -2.49,0.251c-1.462,0 -2.583,-0.203 -3.373,-0.612c-0.789,-0.409 -1.178,-0.931 -1.178,-1.567c0.004,-0.387 0.165,-0.757 0.445,-1.024c0.329,-0.329 0.725,-0.582 1.162,-0.741c0.525,-0.191 1.067,-0.327 1.62,-0.405c0.441,-0.065 1.109,-0.133 2,-0.194c1.349,-0.069 2.693,-0.218 4.024,-0.445l0,-0.337c0.035,-0.465 -0.219,-0.906 -0.639,-1.109c-0.812,-0.337 -1.69,-0.486 -2.567,-0.437c-0.797,-0.039 -1.595,0.069 -2.352,0.32c-0.508,0.215 -0.91,0.621 -1.122,1.129l-2.202,-0.174c0.19,-0.525 0.534,-0.981 0.987,-1.308c0.604,-0.391 1.282,-0.653 1.992,-0.769c0.996,-0.19 2.008,-0.28 3.021,-0.267c0.928,-0.018 1.856,0.06 2.769,0.231c0.555,0.094 1.088,0.29 1.571,0.579c0.318,0.214 0.562,0.521 0.7,0.878c0.092,0.39 0.129,0.791 0.11,1.191l0,1.72c-0.036,0.762 0.013,1.525 0.145,2.276c0.114,0.347 0.31,0.661 0.571,0.915l-2.356,0c-0.233,-0.266 -0.388,-0.591 -0.449,-0.94l0.04,-0.024Zm-0.19,-2.883c-1.216,0.248 -2.447,0.411 -3.685,0.49c-0.661,0.038 -1.318,0.124 -1.967,0.255c-0.325,0.061 -0.631,0.2 -0.891,0.405c-0.191,0.147 -0.307,0.371 -0.316,0.612c0,0.344 0.231,0.631 0.684,0.862c0.632,0.262 1.314,0.379 1.996,0.344c0.786,0.013 1.569,-0.096 2.32,-0.324c0.572,-0.153 1.09,-0.463 1.494,-0.895c0.269,-0.374 0.398,-0.831 0.365,-1.291l0,-0.458Z" style="fill-rule:nonzero;stroke:#2c328c;stroke-width:0.09px;"/></g></g><g><path d="M1251.68,15.618c-3.95,0 -7.154,3.204 -7.154,7.156l0,50.865c0,3.953 3.203,7.156 7.154,7.156l87.166,0c3.95,0 7.154,-3.204 7.154,-7.156l0,-50.865c0,-3.953 -3.203,-7.156 -7.154,-7.156l-87.166,0Z" style="fill:#4d4d4d;"/><path d="M1287.09,36.679c1.149,0 2.114,0.232 3.287,0.792l0,2.96c-1.112,-1.023 -2.076,-1.451 -3.351,-1.451c-2.506,0 -4.477,1.954 -4.477,4.43c0,2.612 1.91,4.449 4.602,4.449c1.211,0 2.157,-0.406 3.226,-1.413l0,2.961c-1.215,0.539 -2.2,0.752 -3.351,0.752c-4.069,0 -7.231,-2.94 -7.231,-6.731c0,-3.75 3.246,-6.749 7.295,-6.749Zm-12.634,0.082c1.502,0 2.876,0.484 4.025,1.43l-1.398,1.723c-0.696,-0.734 -1.354,-1.044 -2.155,-1.044c-1.151,0 -1.99,0.617 -1.99,1.43c0,0.696 0.471,1.065 2.074,1.624c3.04,1.046 3.941,1.974 3.941,4.023c0,2.497 -1.949,4.235 -4.725,4.235c-2.034,0 -3.512,-0.754 -4.743,-2.455l1.726,-1.565c0.615,1.12 1.642,1.72 2.916,1.72c1.192,0 2.075,-0.775 2.075,-1.82c0,-0.541 -0.267,-1.006 -0.801,-1.334c-0.269,-0.155 -0.801,-0.387 -1.847,-0.735c-2.51,-0.85 -3.371,-1.759 -3.371,-3.536c0,-2.111 1.849,-3.696 4.273,-3.696Zm30.536,0.225l2.919,0l3.654,8.663l3.7,-8.663l2.897,0l-5.918,13.228l-1.438,0l-5.814,-13.228Zm-51.693,0.019l3.923,0c4.333,0 7.354,2.652 7.354,6.458c0,1.898 -0.924,3.734 -2.487,4.951c-1.315,1.028 -2.813,1.489 -4.888,1.489l-3.902,0l0,-12.898Zm12.507,0l2.672,0l0,12.898l-2.672,0l0,-12.898Zm53.564,0l7.578,0l0,2.186l-4.907,0l0,2.863l4.727,0l0,2.184l-4.727,0l0,3.482l4.908,0l0,2.183l-7.579,0l0,-12.898Zm9.349,0l3.962,0c3.082,0 4.848,1.394 4.848,3.808c0,1.975 -1.108,3.271 -3.121,3.657l4.312,5.433l-3.286,0l-3.698,-5.181l-0.349,0l0,5.181l-2.668,0l0,-12.898Zm2.668,2.032l0,3.906l0.781,0c1.707,0 2.611,-0.698 2.611,-1.994c0,-1.255 -0.905,-1.912 -2.569,-1.912l-0.823,0Zm-75.417,0.154l0,8.529l0.717,0c1.726,0 2.817,-0.312 3.657,-1.026c0.924,-0.774 1.48,-2.011 1.48,-3.249c0,-1.236 -0.556,-2.436 -1.48,-3.211c-0.883,-0.752 -1.931,-1.043 -3.657,-1.043l-0.717,0Z" style="fill:#fff;"/><path d="M1298.53,36.59c4.025,0 7.288,3.068 7.288,6.857l0,0.005c0,3.789 -3.263,6.861 -7.288,6.861c-4.025,0 -7.288,-3.072 -7.288,-6.861l0,-0.005c0,-3.789 3.263,-6.857 7.288,-6.857Zm47.465,16.542c-3.389,2.384 -28.761,19.428 -72.69,27.661l65.536,0c3.951,0 7.154,-3.205 7.154,-7.156l0,-20.506l0,0.001Z" style="fill:#f47216;"/></g><g id="g97"><g id="g65"><path id="path4" d="M988.598,74.075c0,9.631 -7.843,17.474 -17.474,17.474l-95.079,0l0,-69.211c0,-9.631 7.843,-17.474 17.474,-17.474l95.079,0l0,69.211Z" style="fill:#fff;fill-rule:nonzero;"/><g id="g39"><path id="path15" d="M957.639,56.325l7.224,0c0.206,0 0.688,-0.069 0.894,-0.069c1.376,-0.275 2.546,-1.514 2.546,-3.234c0,-1.651 -1.17,-2.889 -2.546,-3.233c-0.206,-0.069 -0.619,-0.069 -0.894,-0.069l-7.224,0l0,6.605Z" style="fill:url(#_Linear2);fill-rule:nonzero;"/><path id="path26" d="M964.037,10.711c-6.879,0 -12.521,5.573 -12.521,12.522l0,13.003l17.681,0c0.413,0 0.895,0 1.239,0.068c3.99,0.207 6.948,2.271 6.948,5.848c0,2.821 -1.995,5.229 -5.71,5.71l0,0.138c4.059,0.275 7.155,2.546 7.155,6.054c0,3.784 -3.44,6.261 -7.981,6.261l-19.401,0l0,25.455l18.369,0c6.88,0 12.522,-5.572 12.522,-12.521l0,-62.538l-18.301,0Z" style="fill:url(#_Linear3);fill-rule:nonzero;"/><path id="path37" d="M967.408,42.978c0,-1.651 -1.169,-2.752 -2.545,-2.959c-0.138,0 -0.482,-0.068 -0.688,-0.068l-6.536,0l0,6.054l6.536,0c0.206,0 0.619,0 0.688,-0.069c1.376,-0.206 2.545,-1.307 2.545,-2.958Z" style="fill:url(#_Linear4);fill-rule:nonzero;"/></g><path id="path50" d="M894.826,10.711c-6.879,0 -12.521,5.573 -12.521,12.522l0,30.89c3.509,1.72 7.155,2.821 10.802,2.821c4.334,0 6.673,-2.615 6.673,-6.192l0,-14.585l10.732,0l0,14.516c0,5.642 -3.508,10.251 -15.41,10.251c-7.224,0 -12.866,-1.582 -12.866,-1.582l0,26.349l18.37,0c6.879,0 12.521,-5.572 12.521,-12.521l0,-62.469l-18.301,0Z" style="fill:url(#_Linear5);fill-rule:nonzero;"/><path id="path63" d="M929.432,10.711c-6.88,0 -12.521,5.573 -12.521,12.522l0,16.374c3.164,-2.683 8.668,-4.403 17.543,-3.991c4.747,0.207 9.838,1.514 9.838,1.514l0,5.297c-2.545,-1.307 -5.572,-2.476 -9.494,-2.752c-6.742,-0.481 -10.801,2.821 -10.801,8.6c0,5.848 4.059,9.15 10.801,8.6c3.922,-0.275 6.949,-1.514 9.494,-2.752l0,5.298c0,0 -5.022,1.307 -9.838,1.513c-8.875,0.413 -14.379,-1.307 -17.543,-3.99l0,28.895l18.369,0c6.88,0 12.521,-5.573 12.521,-12.521l0,-62.607l-18.369,0Z" style="fill:url(#_Linear6);fill-rule:nonzero;"/></g></g><clipPath id="_clip7"><rect x="8.402" y="18.304" width="168.753" height="59.806"/></clipPath><g clip-path="url(#_clip7)"><g id="layer1"><path id="path2356" d="M77.834,74.147l0,-34.298c0,-6.311 5.116,-11.427 11.427,-11.427l10.126,0.016c6.293,0.012 11.387,5.117 11.387,11.409l0,7.301c0,6.311 -5.116,11.426 -11.427,11.426l-14.309,0" style="fill:none;fill-rule:nonzero;stroke:#939598;stroke-width:2.11px;stroke-linecap:round;stroke-linejoin:round;stroke-miterlimit:10;"/><path id="path2360" d="M113.604,28.418l4.393,-0c2.59,-0 4.689,2.099 4.689,4.689l-0,25.621" style="fill:none;fill-rule:nonzero;stroke:#939598;stroke-width:2.11px;stroke-linecap:round;stroke-linejoin:round;stroke-miterlimit:10;"/><path id="path2364" d="M121.744,24.449l-1.992,-1.993c-0.494,-0.494 -0.494,-1.296 0,-1.79l1.991,-1.991c0.495,-0.495 1.298,-0.495 1.792,0l1.991,1.991c0.495,0.494 0.495,1.296 0,1.79l-1.992,1.993c-0.494,0.494 -1.295,0.494 -1.79,-0" style="fill:#32bcad;fill-rule:nonzero;"/><path id="path2368" d="M131.113,28.395l4.357,-0c2.241,-0 4.39,0.89 5.975,2.475l10.189,10.189c1.32,1.32 3.46,1.32 4.78,0l10.152,-10.152c1.585,-1.584 3.734,-2.475 5.975,-2.475l3.542,0" style="fill:none;fill-rule:nonzero;stroke:#939598;stroke-width:2.11px;stroke-linecap:round;stroke-linejoin:round;stroke-miterlimit:10;"/><path id="path2372" d="M131.113,58.504l4.357,-0c2.241,-0 4.39,-0.891 5.975,-2.475l10.189,-10.19c1.32,-1.32 3.46,-1.32 4.78,0l10.152,10.152c1.585,1.585 3.734,2.475 5.975,2.475l3.542,0" style="fill:none;fill-rule:nonzero;stroke:#939598;stroke-width:2.11px;stroke-linecap:round;stroke-linejoin:round;stroke-miterlimit:10;"/><path id="path2376" d="M51.862,65.013c-2.187,0 -4.243,-0.851 -5.789,-2.396l-8.359,-8.359c-0.586,-0.589 -1.609,-0.587 -2.196,-0l-8.389,8.389c-1.546,1.545 -3.602,2.397 -5.789,2.397l-1.647,-0l10.586,10.586c3.306,3.306 8.667,3.306 11.973,-0l10.617,-10.617l-1.007,0Z" style="fill:#32bcad;fill-rule:nonzero;"/><path id="path2380" d="M21.34,35.447c2.186,0 4.243,0.852 5.789,2.397l8.389,8.391c0.604,0.604 1.591,0.606 2.196,-0.001l8.359,-8.359c1.546,-1.546 3.602,-2.397 5.789,-2.397l1.007,0l-10.617,-10.616c-3.306,-3.307 -8.667,-3.307 -11.973,-0l-10.586,10.586l1.647,-0.001Z" style="fill:#32bcad;fill-rule:nonzero;"/><path id="path2384" d="M61.65,44.259l-6.416,-6.415c-0.141,0.056 -0.294,0.092 -0.455,0.092l-2.917,-0c-1.508,-0 -2.985,0.611 -4.05,1.678l-8.358,8.358c-0.783,0.782 -1.81,1.174 -2.837,1.174c-1.028,-0 -2.055,-0.392 -2.837,-1.173l-8.39,-8.39c-1.066,-1.066 -2.542,-1.678 -4.05,-1.678l-3.587,0c-0.153,0 -0.295,-0.036 -0.43,-0.087l-6.442,6.441c-3.306,3.307 -3.306,8.667 0,11.973l6.441,6.441c0.136,-0.051 0.278,-0.087 0.431,-0.087l3.587,0c1.508,0 2.984,-0.611 4.05,-1.678l8.389,-8.389c1.516,-1.515 4.16,-1.515 5.675,0.001l8.358,8.358c1.065,1.066 2.542,1.678 4.05,1.678l2.917,-0c0.161,-0 0.314,0.035 0.455,0.092l6.416,-6.416c3.306,-3.306 3.306,-8.666 -0,-11.973" style="fill:#32bcad;fill-rule:nonzero;"/><path id="path2388" d="M86.542,71.231c-0.473,0 -1.024,0.114 -1.569,0.24l-0,2.09c0.377,0.138 0.809,0.204 1.222,0.204c1.048,0 1.545,-0.353 1.545,-1.276c0,-0.868 -0.407,-1.258 -1.198,-1.258m-1.923,3.882l0,-4.133l0.288,-0l0.03,0.18c0.485,-0.114 1.156,-0.264 1.635,-0.264c0.39,-0 0.761,0.059 1.072,0.311c0.36,0.294 0.474,0.767 0.474,1.282c-0,0.54 -0.18,1.048 -0.671,1.33c-0.342,0.191 -0.803,0.269 -1.216,0.269c-0.426,0 -0.833,-0.066 -1.258,-0.191l-0,1.216l-0.354,-0Z" style="fill:#939598;fill-rule:nonzero;"/><path id="path2392" d="M90.749,71.219c-1.048,0 -1.515,0.33 -1.515,1.252c-0,0.893 0.461,1.294 1.515,1.294c1.042,0 1.509,-0.324 1.509,-1.246c0,-0.892 -0.461,-1.3 -1.509,-1.3m1.348,2.546c-0.348,0.251 -0.815,0.323 -1.348,0.323c-0.545,0 -1.012,-0.077 -1.354,-0.323c-0.383,-0.269 -0.539,-0.713 -0.539,-1.27c-0,-0.551 0.156,-1 0.539,-1.276c0.342,-0.245 0.809,-0.323 1.354,-0.323c0.539,-0 1,0.078 1.348,0.323c0.389,0.276 0.539,0.725 0.539,1.27c-0,0.557 -0.156,1.007 -0.539,1.276" style="fill:#939598;fill-rule:nonzero;"/><path id="path2396" d="M97.059,74.005l-1.169,-2.51l-0.024,0l-1.15,2.51l-0.317,-0l-1.246,-3.025l0.389,-0l1.037,2.539l0.024,0l1.126,-2.539l0.323,-0l1.156,2.539l0.024,0l1.013,-2.539l0.377,-0l-1.246,3.025l-0.317,-0Z" style="fill:#939598;fill-rule:nonzero;"/><path id="path2400" d="M100.881,71.213c-0.97,0 -1.299,0.431 -1.36,1.055l2.72,-0c-0.03,-0.689 -0.384,-1.055 -1.36,-1.055m-0.012,2.875c-0.581,0 -0.958,-0.083 -1.257,-0.335c-0.354,-0.306 -0.474,-0.749 -0.474,-1.258c0,-0.485 0.162,-1 0.563,-1.294c0.336,-0.233 0.749,-0.305 1.18,-0.305c0.39,-0 0.839,0.042 1.21,0.294c0.437,0.293 0.522,0.808 0.522,1.395l-3.103,-0c0.011,0.623 0.215,1.174 1.389,1.174c0.557,0 1.078,-0.09 1.564,-0.174l-0,0.317c-0.504,0.091 -1.061,0.186 -1.594,0.186" style="fill:#939598;fill-rule:nonzero;"/><path id="path2404" d="M103.627,74.005l-0,-3.025l0.287,-0l0.03,0.18c0.641,-0.162 0.941,-0.264 1.504,-0.264l0.042,-0l-0,0.335l-0.084,0c-0.473,0 -0.761,0.066 -1.426,0.24l0,2.534l-0.353,-0Z" style="fill:#939598;fill-rule:nonzero;"/><path id="path2408" d="M107.542,71.213c-0.97,0 -1.299,0.431 -1.36,1.055l2.72,-0c-0.03,-0.689 -0.383,-1.055 -1.36,-1.055m-0.011,2.875c-0.582,0 -0.959,-0.083 -1.258,-0.335c-0.354,-0.306 -0.474,-0.749 -0.474,-1.258c0,-0.485 0.162,-1 0.563,-1.294c0.336,-0.233 0.749,-0.305 1.18,-0.305c0.39,-0 0.839,0.042 1.21,0.294c0.438,0.293 0.522,0.808 0.522,1.395l-3.103,-0c0.011,0.623 0.215,1.174 1.389,1.174c0.557,0 1.078,-0.09 1.564,-0.174l-0,0.317c-0.504,0.091 -1.061,0.186 -1.593,0.186" style="fill:#939598;fill-rule:nonzero;"/><path id="path2412" d="M113.145,71.423c-0.377,-0.138 -0.808,-0.204 -1.222,-0.204c-1.048,0 -1.545,0.354 -1.545,1.276c-0,0.874 0.407,1.258 1.197,1.258c0.474,-0 1.025,-0.114 1.57,-0.234l0,-2.096Zm0.066,2.582l-0.03,-0.18c-0.485,0.114 -1.156,0.263 -1.635,0.263c-0.389,0 -0.761,-0.053 -1.072,-0.311c-0.36,-0.294 -0.474,-0.767 -0.474,-1.282c0,-0.539 0.18,-1.048 0.671,-1.324c0.342,-0.197 0.803,-0.275 1.222,-0.275c0.42,-0 0.827,0.072 1.252,0.192l0,-1.384l0.354,0l-0,4.301l-0.288,-0Z" style="fill:#939598;fill-rule:nonzero;"/><path id="path2416" d="M118.681,71.231c-0.474,0 -1.025,0.114 -1.57,0.24l-0,2.084c0.384,0.144 0.809,0.21 1.222,0.21c1.048,0 1.545,-0.353 1.545,-1.276c0,-0.868 -0.407,-1.258 -1.197,-1.258m0.904,2.588c-0.342,0.191 -0.803,0.269 -1.216,0.269c-0.449,0 -0.898,-0.078 -1.354,-0.227l-0.018,0.144l-0.24,-0l0,-4.301l0.354,-0l-0,1.443c0.485,-0.107 1.138,-0.251 1.599,-0.251c0.39,-0 0.761,0.059 1.072,0.311c0.36,0.294 0.474,0.767 0.474,1.282c-0,0.54 -0.18,1.048 -0.671,1.33" style="fill:#939598;fill-rule:nonzero;"/><path id="path2420" d="M120.725,75.166l-0,-0.329c0.173,0.018 0.336,0.03 0.449,0.03c0.438,0 0.701,-0.126 0.946,-0.623l0.114,-0.239l-1.581,-3.025l0.408,-0l1.353,2.611l0.024,0l1.288,-2.611l0.401,-0l-1.701,3.396c-0.311,0.617 -0.647,0.82 -1.264,0.82c-0.138,0 -0.287,-0.011 -0.437,-0.03" style="fill:#939598;fill-rule:nonzero;"/><path id="path2424" d="M128.998,72.279l-1.174,0l0,1.061l1.18,0c0.809,0 1.114,-0.09 1.114,-0.533c0,-0.474 -0.419,-0.528 -1.12,-0.528m-0.215,-1.719l-0.959,0l0,1.078l0.965,0c0.796,0 1.114,-0.095 1.114,-0.545c-0,-0.478 -0.402,-0.533 -1.12,-0.533m1.821,3.157c-0.432,0.276 -0.953,0.288 -1.905,0.288l-1.791,-0l-0,-4.103l1.749,-0c0.82,-0 1.323,0.011 1.743,0.263c0.299,0.18 0.419,0.455 0.419,0.815c-0,0.431 -0.179,0.719 -0.647,0.91l-0,0.024c0.527,0.12 0.869,0.39 0.869,0.971c-0,0.395 -0.144,0.652 -0.437,0.832" style="fill:#939598;fill-rule:nonzero;"/><path id="path2428" d="M134.624,72.735c-0.354,-0.03 -0.713,-0.048 -1.09,-0.048c-0.617,0 -0.833,0.126 -0.833,0.407c-0,0.264 0.18,0.408 0.653,0.408c0.395,-0 0.869,-0.09 1.27,-0.18l0,-0.587Zm0.18,1.27l-0.024,-0.18c-0.516,0.126 -1.114,0.263 -1.642,0.263c-0.323,0 -0.67,-0.042 -0.916,-0.221c-0.227,-0.162 -0.336,-0.426 -0.336,-0.731c0,-0.342 0.15,-0.659 0.509,-0.821c0.318,-0.149 0.743,-0.161 1.133,-0.161c0.317,-0 0.742,0.018 1.096,0.042l0,-0.055c0,-0.472 -0.312,-0.628 -1.162,-0.628c-0.33,-0 -0.731,0.017 -1.114,0.053l-0,-0.611c0.425,-0.035 0.904,-0.059 1.3,-0.059c0.526,-0 1.072,0.042 1.407,0.281c0.347,0.246 0.414,0.588 0.414,1.036l-0,1.792l-0.665,-0Z" style="fill:#939598;fill-rule:nonzero;"/><path id="path2432" d="M139.418,74.005l-0,-1.672c-0,-0.551 -0.281,-0.748 -0.785,-0.748c-0.371,-0 -0.838,0.095 -1.234,0.191l0,2.229l-0.844,-0l-0,-3.025l0.689,-0l0.03,0.191c0.532,-0.137 1.126,-0.275 1.617,-0.275c0.371,-0 0.749,0.053 1.036,0.311c0.239,0.216 0.33,0.515 0.33,0.947l-0,1.851l-0.839,-0Z" style="fill:#939598;fill-rule:nonzero;"/><path id="path2436" d="M142.643,74.088c-0.39,0 -0.815,-0.053 -1.126,-0.317c-0.372,-0.3 -0.48,-0.773 -0.48,-1.282c0,-0.479 0.156,-1 0.617,-1.294c0.378,-0.245 0.845,-0.299 1.33,-0.299c0.348,-0 0.689,0.024 1.066,0.059l0,0.647c-0.306,-0.029 -0.671,-0.053 -0.964,-0.053c-0.803,-0 -1.18,0.252 -1.18,0.946c-0,0.653 0.281,0.935 0.94,0.935c0.383,-0 0.833,-0.072 1.27,-0.156l0,0.623c-0.473,0.096 -0.988,0.191 -1.473,0.191" style="fill:#939598;fill-rule:nonzero;"/><path id="path2440" d="M146.611,71.53c-0.803,0 -1.156,0.252 -1.156,0.941c-0,0.689 0.347,0.983 1.156,0.983c0.796,-0 1.144,-0.246 1.144,-0.935c-0,-0.689 -0.341,-0.989 -1.144,-0.989m1.449,2.241c-0.371,0.251 -0.856,0.317 -1.449,0.317c-0.605,0 -1.09,-0.072 -1.456,-0.317c-0.419,-0.275 -0.569,-0.731 -0.569,-1.276c0,-0.545 0.15,-1.006 0.569,-1.282c0.366,-0.245 0.851,-0.317 1.456,-0.317c0.599,-0 1.078,0.072 1.449,0.317c0.42,0.276 0.564,0.737 0.564,1.276c-0,0.545 -0.15,1.007 -0.564,1.282" style="fill:#939598;fill-rule:nonzero;"/><path id="path2444" d="M153.5,74.088c-0.509,0 -1.06,-0.083 -1.474,-0.425c-0.491,-0.407 -0.641,-1.036 -0.641,-1.713c0,-0.605 0.192,-1.324 0.833,-1.743c0.497,-0.323 1.114,-0.389 1.737,-0.389c0.456,-0 0.923,0.03 1.432,0.072l-0,0.736c-0.438,-0.036 -0.976,-0.066 -1.396,-0.066c-1.168,0 -1.665,0.444 -1.665,1.39c-0,0.965 0.461,1.396 1.324,1.396c0.562,-0 1.191,-0.114 1.826,-0.246l0,0.73c-0.635,0.127 -1.3,0.258 -1.976,0.258" style="fill:#939598;fill-rule:nonzero;"/><path id="path2448" d="M157.958,71.435c-0.701,-0 -0.97,0.252 -1.024,0.713l2.037,-0c-0.025,-0.491 -0.312,-0.713 -1.013,-0.713m-0.126,2.653c-0.497,0 -0.946,-0.059 -1.282,-0.335c-0.359,-0.299 -0.485,-0.749 -0.485,-1.264c0,-0.461 0.15,-0.976 0.57,-1.276c0.371,-0.263 0.844,-0.317 1.323,-0.317c0.432,-0 0.941,0.048 1.312,0.305c0.485,0.342 0.527,0.869 0.533,1.492l-2.875,-0c0.018,0.461 0.263,0.761 1.114,0.761c0.527,-0 1.114,-0.078 1.611,-0.156l0,0.593c-0.581,0.096 -1.216,0.197 -1.821,0.197" style="fill:#939598;fill-rule:nonzero;"/><path id="path2452" d="M163.561,74.005l-0,-1.672c-0,-0.551 -0.282,-0.748 -0.785,-0.748c-0.371,-0 -0.838,0.095 -1.234,0.191l0,2.229l-0.844,-0l-0,-3.025l0.688,-0l0.03,0.191c0.533,-0.137 1.127,-0.275 1.618,-0.275c0.371,-0 0.748,0.053 1.036,0.311c0.239,0.216 0.329,0.515 0.329,0.947l0,1.851l-0.838,-0Z" style="fill:#939598;fill-rule:nonzero;"/><path id="path2456" d="M166.803,74.088c-0.407,0 -0.778,-0.114 -0.982,-0.431c-0.15,-0.216 -0.222,-0.509 -0.222,-0.916l0,-1.133l-0.611,0l0,-0.628l0.611,-0l0.09,-0.917l0.749,-0l0,0.917l1.192,-0l-0,0.628l-1.192,0l0,0.971c0,0.234 0.018,0.431 0.084,0.575c0.09,0.204 0.287,0.281 0.551,0.281c0.197,0 0.437,-0.03 0.605,-0.059l-0,0.604c-0.276,0.055 -0.593,0.108 -0.875,0.108" style="fill:#939598;fill-rule:nonzero;"/><path id="path2460" d="M168.454,74.005l-0,-3.025l0.689,-0l0.03,0.191c0.557,-0.155 0.97,-0.275 1.497,-0.275c0.024,-0 0.06,-0 0.108,0.006l-0,0.719c-0.096,-0.006 -0.21,-0.006 -0.294,-0.006c-0.413,-0 -0.724,0.048 -1.186,0.156l0,2.234l-0.844,-0Z" style="fill:#939598;fill-rule:nonzero;"/><path id="path2464" d="M173.849,72.735c-0.354,-0.03 -0.713,-0.048 -1.091,-0.048c-0.617,0 -0.833,0.126 -0.833,0.407c0,0.264 0.18,0.408 0.653,0.408c0.396,-0 0.869,-0.09 1.271,-0.18l-0,-0.587Zm0.179,1.27l-0.024,-0.18c-0.515,0.126 -1.114,0.263 -1.641,0.263c-0.324,0 -0.671,-0.042 -0.917,-0.221c-0.227,-0.162 -0.335,-0.426 -0.335,-0.731c-0,-0.342 0.15,-0.659 0.509,-0.821c0.318,-0.149 0.743,-0.161 1.132,-0.161c0.318,-0 0.743,0.018 1.097,0.042l-0,-0.055c-0,-0.472 -0.312,-0.628 -1.163,-0.628c-0.329,-0 -0.731,0.017 -1.114,0.053l0,-0.611c0.425,-0.035 0.905,-0.059 1.3,-0.059c0.527,-0 1.072,0.042 1.408,0.281c0.347,0.246 0.413,0.588 0.413,1.036l0,1.792l-0.665,-0Z" style="fill:#939598;fill-rule:nonzero;"/><rect id="path2466" x="175.779" y="69.704" width="0.845" height="4.301" style="fill:#939598;fill-rule:nonzero;"/></g></g></g></g><defs><linearGradient id="_Linear2" x1="0" y1="0" x2="1" y2="0" gradientUnits="userSpaceOnUse" gradientTransform="matrix(30.9198,0,0,30.9198,951.503,53.0294)"><stop offset="0" style="stop-color:#007940;stop-opacity:1"/><stop offset="0.23" style="stop-color:#00873f;stop-opacity:1"/><stop offset="0.74" style="stop-color:#40a737;stop-opacity:1"/><stop offset="1" style="stop-color:#5cb531;stop-opacity:1"/></linearGradient><linearGradient id="_Linear3" x1="0" y1="0" x2="1" y2="0" gradientUnits="userSpaceOnUse" gradientTransform="matrix(30.9184,0,0,30.9184,951.504,48.2098)"><stop offset="0" style="stop-color:#007940;stop-opacity:1"/><stop offset="0.23" style="stop-color:#00873f;stop-opacity:1"/><stop offset="0.74" style="stop-color:#40a737;stop-opacity:1"/><stop offset="1" style="stop-color:#5cb531;stop-opacity:1"/></linearGradient><linearGradient id="_Linear4" x1="0" y1="0" x2="1" y2="0" gradientUnits="userSpaceOnUse" gradientTransform="matrix(30.9171,0,0,30.9171,951.503,42.9676)"><stop offset="0" style="stop-color:#007940;stop-opacity:1"/><stop offset="0.23" style="stop-color:#00873f;stop-opacity:1"/><stop offset="0.74" style="stop-color:#40a737;stop-opacity:1"/><stop offset="1" style="stop-color:#5cb531;stop-opacity:1"/></linearGradient><linearGradient id="_Linear5" x1="0" y1="0" x2="1" y2="0" gradientUnits="userSpaceOnUse" gradientTransform="matrix(31.3954,0,0,31.3954,882.29,48.2098)"><stop offset="0" style="stop-color:#1f286f;stop-opacity:1"/><stop offset="0.48" style="stop-color:#004e94;stop-opacity:1"/><stop offset="0.83" style="stop-color:#0066b1;stop-opacity:1"/><stop offset="1" style="stop-color:#006fbc;stop-opacity:1"/></linearGradient><linearGradient id="_Linear6" x1="0" y1="0" x2="1" y2="0" gradientUnits="userSpaceOnUse" gradientTransform="matrix(30.4911,0,0,30.4911,916.732,48.2098)"><stop offset="0" style="stop-color:#6c2c2f;stop-opacity:1"/><stop offset="0.17" style="stop-color:#882730;stop-opacity:1"/><stop offset="0.57" style="stop-color:#be1833;stop-opacity:1"/><stop offset="0.86" style="stop-color:#dc0436;stop-opacity:1"/><stop offset="1" style="stop-color:#e60039;stop-opacity:1"/></linearGradient></defs></svg>