<svg clip-rule="evenodd" fill-rule="evenodd" stroke-miterlimit="22.93" viewBox="0 0 1353 94" xmlns="http://www.w3.org/2000/svg" xmlns:xlink="http://www.w3.org/1999/xlink"><linearGradient id="a"><stop offset="0" stop-color="#007940"/><stop offset=".23" stop-color="#00873f"/><stop offset=".74" stop-color="#40a737"/><stop offset="1" stop-color="#5cb531"/></linearGradient><linearGradient id="b" gradientUnits="userSpaceOnUse" x1="951.503" x2="982.4228" xlink:href="#a" y1="53.0294" y2="53.0294"/><linearGradient id="c" gradientUnits="userSpaceOnUse" x1="951.504" x2="982.4224" xlink:href="#a" y1="48.2098" y2="48.2098"/><linearGradient id="d" gradientUnits="userSpaceOnUse" x1="951.503" x2="982.4201" xlink:href="#a" y1="42.9676" y2="42.9676"/><linearGradient id="e" gradientUnits="userSpaceOnUse" x1="882.29" x2="913.6854" y1="48.2098" y2="48.2098"><stop offset="0" stop-color="#1f286f"/><stop offset=".48" stop-color="#004e94"/><stop offset=".83" stop-color="#0066b1"/><stop offset="1" stop-color="#006fbc"/></linearGradient><linearGradient id="f" gradientUnits="userSpaceOnUse" x1="916.732" x2="947.2231" y1="48.2098" y2="48.2098"><stop offset="0" stop-color="#6c2c2f"/><stop offset=".17" stop-color="#882730"/><stop offset=".57" stop-color="#be1833"/><stop offset=".86" stop-color="#dc0436"/><stop offset="1" stop-color="#e60039"/></linearGradient><clipPath id="g"><path clip-rule="evenodd" d="m0 0h1352.15v93.245h-1352.15z"/></clipPath><clipPath id="h"><path clip-rule="evenodd" d="m8.402 18.304h168.753v59.806h-168.753z"/></clipPath><path d="m0 0h1352.15v93.245h-1352.15z" fill="none"/><g clip-path="url(#g)"><path d="m247.043 66.912h-9.732l6.083-37.385h9.733z" fill="#0066b3" fill-rule="nonzero"/><path d="m229.122 29.527-9.279 25.713-1.098-5.537.001.002-3.275-16.811s-.396-3.367-4.617-3.367h-15.339l-.18.633s4.692.975 10.181 4.274l8.456 32.478h10.14l15.486-37.385z" fill="#0066b3" fill-rule="nonzero"/><path d="m294.968 53.687 5.115-13.99 2.877 13.99zm10.71 13.225h8.937l-7.792-37.385h-7.825c-3.614 0-4.493 2.786-4.493 2.786l-14.516 34.599h10.145l2.03-5.553h12.373z" fill="#0066b3" fill-rule="nonzero"/><path d="m280.75 38.517 1.389-8.029s-4.286-1.63-8.754-1.63c-4.83 0-16.3 2.112-16.3 12.376 0 9.659 13.462 9.779 13.462 14.851 0 5.071-12.074 4.165-16.059.965l-1.448 8.393s4.346 2.112 10.987 2.112 16.663-3.44 16.663-12.799c0-9.719-13.583-10.625-13.583-14.85 0-4.227 9.478-3.684 13.643-1.389z" fill="#0066b3" fill-rule="nonzero"/><path d="m218.746 49.705-3.275-16.811s-.396-3.367-4.617-3.367h-15.339l-.18.633s7.373 1.528 14.446 7.253c6.76 5.471 8.965 12.292 8.965 12.292z" fill="#faa633" fill-rule="nonzero"/><path d="m321.844-.949h119.858v98.312h-119.858z" fill="none"/><path d="m351.522 84.993v-4.899c.005-.067.007-.134.007-.201 0-1.595-1.312-2.907-2.906-2.907-.057 0-.114.002-.171.005-1.097-.072-2.151.461-2.743 1.388-.54-.899-1.532-1.433-2.58-1.388-.913-.046-1.784.396-2.286 1.16v-.964h-1.698v7.806h1.714v-4.295c-.011-.082-.017-.165-.017-.248 0-1.003.826-1.828 1.829-1.828.033 0 .066 0 .099.002 1.127 0 1.698.735 1.698 2.058v4.343h1.715v-4.327c-.011-.079-.016-.159-.016-.239 0-1.008.829-1.837 1.837-1.837.03 0 .06.001.089.002 1.16 0 1.715.735 1.715 2.058v4.343zm25.368-7.806h-2.792v-2.368h-1.715v2.368h-1.551v1.551h1.584v3.593c0 1.813.702 2.89 2.711 2.89.75.003 1.486-.207 2.122-.604l-.489-1.453c-.456.271-.973.423-1.503.441-.816 0-1.126-.523-1.126-1.307v-3.56h2.776zm14.484-.196c-.842-.025-1.633.415-2.057 1.143v-.947h-1.682v7.806h1.698v-4.377c0-1.29.555-2.008 1.633-2.008.363-.005.724.061 1.062.196l.522-1.633c-.388-.139-.796-.211-1.208-.212zm-21.897.817c-.962-.572-2.067-.855-3.185-.817-1.975 0-3.266.947-3.266 2.499 0 1.273.948 2.057 2.695 2.302l.816.114c.931.131 1.372.376 1.372.817 0 .604-.621.947-1.78.947-.932.027-1.847-.261-2.596-.817l-.817 1.323c.989.691 2.175 1.046 3.38 1.013 2.254 0 3.56-1.062 3.56-2.548s-1.029-2.09-2.727-2.335l-.816-.114c-.735-.098-1.323-.245-1.323-.768 0-.522.555-.914 1.486-.914.86.01 1.704.24 2.449.669zm45.485-.817c-.842-.025-1.633.415-2.057 1.143v-.947h-1.682v7.806h1.698v-4.377c0-1.29.555-2.008 1.633-2.008.363-.005.724.061 1.062.196l.522-1.633c-.388-.139-.796-.211-1.208-.212zm-21.881 4.083c-.002.048-.003.096-.003.145 0 2.163 1.78 3.943 3.944 3.943.074 0 .149-.002.223-.006 1.019.052 2.022-.28 2.809-.931l-.817-1.372c-.587.448-1.303.694-2.041.703-1.295-.105-2.305-1.2-2.305-2.499s1.01-2.393 2.305-2.498c.738.008 1.454.254 2.041.702l.817-1.372c-.787-.65-1.79-.982-2.809-.93-.074-.005-.149-.007-.223-.007-2.164 0-3.944 1.78-3.944 3.944 0 .048.001.097.003.145zm15.905 3.886v-7.773h-1.698v.947c-.585-.752-1.498-1.178-2.45-1.143-2.239 0-4.082 1.843-4.082 4.083 0 2.239 1.843 4.082 4.082 4.082.952.035 1.865-.391 2.45-1.143v.947zm-6.32-3.886c.073-1.24 1.114-2.221 2.356-2.221 1.294 0 2.359 1.065 2.359 2.359 0 1.29-1.057 2.353-2.347 2.36h-.03c-1.285 0-2.343-1.058-2.343-2.343 0-.052.002-.104.005-.155zm-20.493-4.083c-2.218.031-4.026 1.864-4.026 4.083 0 2.239 1.843 4.082 4.083 4.082h.057c1.174.06 2.33-.318 3.241-1.061l-.816-1.258c-.645.517-1.444.805-2.27.817-1.16.099-2.203-.754-2.335-1.911h5.797v-.653c0-2.45-1.519-4.082-3.707-4.082zm0 1.519c.014 0 .027-.001.041-.001 1.046 0 1.913.849 1.935 1.895h-4.083c.061-1.083.99-1.931 2.074-1.894zm42.546 6.45v-10.908h-1.633v4.082c-.584-.752-1.497-1.178-2.449-1.143-2.24 0-4.083 1.843-4.083 4.083 0 2.239 1.843 4.082 4.083 4.082.952.035 1.865-.391 2.449-1.143v.947zm2.833-1.102c.107-.002.212.018.311.057.093.038.179.094.253.163.071.071.13.154.171.245.084.193.084.412 0 .604-.041.092-.1.175-.171.245-.074.07-.16.125-.253.164-.098.043-.204.065-.311.065-.315-.002-.602-.187-.734-.474-.083-.193-.083-.411 0-.604.041-.091.099-.174.171-.245.074-.069.159-.125.253-.163.106-.042.221-.062.335-.057zm0 1.38c.082 0 .163-.017.237-.049.07-.032.134-.076.188-.131.211-.23.211-.587 0-.817-.054-.055-.118-.099-.188-.13-.075-.033-.155-.049-.237-.049-.081 0-.162.017-.236.049-.074.03-.14.074-.196.13-.211.23-.211.587 0 .817.056.056.122.1.196.131.082.035.171.052.261.049zm.049-.972c.077-.004.152.019.213.065.05.042.078.106.073.172.002.055-.018.108-.057.147-.047.043-.108.069-.171.073l.236.27h-.188l-.22-.27h-.073v.27h-.156v-.719zm-.179.139v.196h.179c.032.009.066.009.098 0 .012-.023.012-.051 0-.074.012-.023.012-.05 0-.073-.032-.01-.066-.01-.098 0zm-8.981-3.315c.073-1.24 1.113-2.221 2.355-2.221 1.294 0 2.36 1.065 2.36 2.36 0 1.29-1.058 2.353-2.348 2.359-.01 0-.019.001-.029.001-1.286 0-2.344-1.058-2.344-2.344 0-.052.002-.103.006-.155zm-57.341 3.87v-7.773h-1.699v.947c-.584-.752-1.497-1.178-2.449-1.143-2.24 0-4.082 1.843-4.082 4.083 0 2.239 1.842 4.082 4.082 4.082.952.035 1.865-.391 2.449-1.143v.947zm-6.32-3.87c.073-1.24 1.114-2.221 2.356-2.221 1.294 0 2.359 1.065 2.359 2.36 0 1.29-1.057 2.353-2.347 2.359-.015.001-.031.001-.046.001-1.286 0-2.343-1.058-2.343-2.344 0-.051.001-.103.005-.155z" fill="#231f20" fill-rule="nonzero"/><path d="m368.913 17.707h25.719v46.221h-25.719z" fill="#ff5f00"/><path d="m370.546 40.821c-.009-9.014 4.135-17.548 11.227-23.114-5.178-4.069-11.577-6.283-18.162-6.283-16.125 0-29.394 13.269-29.394 29.393 0 16.125 13.269 29.393 29.394 29.393 6.585 0 12.984-2.213 18.162-6.282-7.089-5.564-11.234-14.095-11.227-23.107z" fill="#eb001b" fill-rule="nonzero"/><path d="m429.332 40.821c0 16.125-13.268 29.393-29.393 29.393-6.587 0-12.988-2.215-18.166-6.286 7.086-5.569 11.231-14.098 11.231-23.111 0-9.012-4.145-17.541-11.231-23.11 5.178-4.071 11.579-6.286 18.166-6.286 16.125 0 29.393 13.268 29.393 29.392z" fill="#f79e1b" fill-rule="nonzero"/><path d="m426.524 59.029v-.947h.383v-.196h-.971v.196h.416v.947zm1.886 0v-1.143h-.294l-.343.816-.343-.816h-.261v1.143h.212v-.857l.318.743h.221l.318-.743v.865z" fill="#f79e1b" fill-rule="nonzero"/><path d="m650.551 4.758h83.933v83.933h-83.933z" fill="#fff"/><g fill-rule="nonzero"><path d="m734.483 50.22v-45.424h-83.932v83.932h83.932v-24.488c-.187 0 0-14.02 0-14.02" fill="#006fcf"/><path d="m724.202 45.547h6.356v-14.768h-6.917v2.057l-1.308-2.057h-5.982v2.617l-1.122-2.617h-11.029c-.374 0-.747.187-1.121.187s-.561.187-.935.374-.561.187-.935.374v-.935h-31.591l-.935 2.43-.935-2.43h-7.477v2.617l-1.121-2.617h-5.982l-2.617 6.356v8.412h4.299l.748-2.056h1.495l.748 2.056h32.9v-1.869l1.309 1.869h9.159v-1.122c.187.187.561.187.748.374s.561.187.748.374c.374.187.748.187 1.121.187h6.73l.748-2.056h1.495l.748 2.056h9.16v-1.869l1.495 2.056zm10.281 18.693v-13.833h-51.406l-1.309 1.87-1.308-1.87h-14.955v14.768h14.955l1.308-1.869 1.309 1.869h9.347v-3.178h-.374c1.308 0 2.43-.187 3.364-.561v3.926h6.73v-1.869l1.309 1.869h27.852c1.122-.374 2.244-.561 3.178-1.122z" fill="#fff"/><path d="m731.305 60.689h-5.047v2.056h4.861c2.056 0 3.364-1.309 3.364-3.178s-1.121-2.804-2.991-2.804h-2.243c-.561 0-.934-.374-.934-.935 0-.56.373-.934.934-.934h4.3l.934-2.057h-5.047c-2.056 0-3.365 1.309-3.365 2.991 0 1.87 1.122 2.804 2.991 2.804h2.243c.561 0 .935.374.935.935.187.748-.187 1.122-.935 1.122zm-9.159 0h-5.047v2.056h4.86c2.056 0 3.365-1.309 3.365-3.178s-1.122-2.804-2.991-2.804h-2.243c-.561 0-.935-.374-.935-.935 0-.56.374-.934.935-.934h4.299l.935-2.057h-5.048c-2.056 0-3.364 1.309-3.364 2.991 0 1.87 1.121 2.804 2.991 2.804h2.243c.561 0 .934.374.934.935.187.748-.373 1.122-.934 1.122zm-6.543-5.982v-2.057h-7.851v9.908h7.851v-2.056h-5.608v-2.057h5.421v-2.056h-5.421v-1.869h5.608zm-12.711 0c.934 0 1.308.561 1.308 1.121 0 .561-.374 1.122-1.308 1.122h-2.804v-2.43zm-2.804 4.299h1.121l2.991 3.552h2.804l-3.365-3.739c1.683-.374 2.618-1.495 2.618-2.991 0-1.869-1.309-3.178-3.365-3.178h-5.234v9.908h2.243zm-5.982-2.991c0 .748-.374 1.309-1.309 1.309h-2.991v-2.617h2.804c.935 0 1.496.561 1.496 1.308zm-6.543-3.365v9.908h2.243v-3.365h2.991c2.057 0 3.552-1.308 3.552-3.365 0-1.869-1.308-3.364-3.365-3.364zm-3.365 9.908h2.804l-3.925-5.047 3.925-4.861h-2.804l-2.43 3.178-2.43-3.178h-2.804l3.926 4.861-3.926 4.86h2.804l2.43-3.178zm-8.411-7.851v-2.057h-7.852v9.908h7.852v-2.056h-5.608v-2.057h5.421v-2.056h-5.421v-1.869h5.608zm45.424-17.572 3.926 5.982h2.804v-9.908h-2.244v6.543l-.56-.935-3.552-5.608h-2.991v9.908h2.243v-6.73zm-9.72-.187.747-2.056.748 2.056.935 2.243h-3.365zm3.925 6.169h2.43l-4.299-9.908h-2.991l-4.299 9.908h2.43l.934-2.056h4.861zm-10.468 0 .935-2.056h-.561c-1.683 0-2.617-1.122-2.617-2.804v-.187c0-1.683.934-2.804 2.617-2.804h2.43v-2.057h-2.617c-2.991 0-4.673 2.057-4.673 4.861v.187c0 2.991 1.682 4.86 4.486 4.86zm-8.412 0h2.243v-9.721h-2.243zm-4.86-7.851c.934 0 1.308.561 1.308 1.121 0 .561-.374 1.122-1.308 1.122h-2.804v-2.43zm-2.804 4.299h1.121l2.991 3.552h2.804l-3.364-3.739c1.682-.374 2.617-1.495 2.617-2.991 0-1.869-1.309-3.178-3.365-3.178h-5.234v9.908h2.243zm-4.113-4.299v-2.057h-7.851v9.908h7.851v-2.056h-5.608v-2.057h5.421v-2.056h-5.421v-1.869h5.608zm-17.011 7.851h2.057l2.804-8.038v8.038h2.243v-9.908h-3.739l-2.243 6.73-2.243-6.73h-3.739v9.908h2.243v-8.038zm-12.15-6.169.748-2.056.747 2.056.935 2.243h-3.365zm3.925 6.169h2.43l-4.299-9.908h-2.804l-4.299 9.908h2.43l.934-2.056h4.861z" fill="#006fcf"/><path d="m477.04 28.45c2.076-.695 4.295-1.068 6.607-1.068 10.07 0 18.478 7.154 20.406 16.668l14.279-2.916c-3.276-16.158-17.56-28.324-34.685-28.324-3.93 0-7.7.638-11.227 1.818z" fill="#fbc707"/><path d="m460.188 74.726 9.659-10.918c-4.312-3.82-7.031-9.392-7.031-15.6 0-6.205 2.716-11.774 7.023-15.59l-9.659-10.919c-7.322 6.485-11.94 15.959-11.94 26.509 0 10.556 4.623 20.032 11.948 26.518" fill="#38a7e4"/><path d="m504.048 52.389c-1.932 9.502-10.334 16.646-20.402 16.646-2.314 0-4.538-.373-6.612-1.072l-4.626 13.824c3.528 1.182 7.306 1.816 11.238 1.816 17.11 0 31.391-12.141 34.68-28.29z" fill="#ef3120"/><path d="m559.352 59.961c-.005.006-.008.009-.01.016l-.408-.278c-1.17 1.9-2.991 3.436-5.295 4.432-4.383 1.907-8.443 1.418-11.357-1.14l-.268.406-.006-.007-4.976 7.439c1.235.856 2.56 1.585 3.954 2.165 5.492 2.28 11.112 2.173 16.648-.233 4.002-1.732 7.145-4.38 9.294-7.735zm-15.524-18.351c-4.621 1.988-7.009 6.327-6.517 11.417l19.596-8.436c-3.367-3.962-7.755-5.273-13.079-2.981m-13.009 22.659c-.469-.758-1.105-1.972-1.488-2.863-2.26-5.249-2.369-10.681-.46-15.896 2.099-5.721 6.112-10.099 11.291-12.328 6.518-2.805 13.724-2.249 19.969 1.453 3.964 2.275 6.776 5.788 8.912 10.756.273.636.509 1.319.744 1.895z" fill="#231f20"/><path d="m583.41 22.226v41.357l6.429 2.604-3.653 8.523-7.096-2.95c-1.595-.692-2.678-1.748-3.5-2.94-.782-1.214-1.371-2.881-1.371-5.124v-41.47z" fill="#231f20"/><path d="m600.066 53.045c.003-3.52 1.56-6.678 4.019-8.825l-6.598-7.353c-4.473 3.956-7.288 9.73-7.296 16.169-.008 6.445 2.804 12.227 7.279 16.192l6.585-7.364c-2.445-2.152-3.992-5.305-3.989-8.819" fill="#231f20"/><path d="m611.785 64.783c-1.3-.003-2.547-.219-3.716-.608l-3.151 9.371c2.153.722 4.463 1.114 6.859 1.117 10.442.009 19.166-7.401 21.188-17.253l-9.686-1.975c-1.098 5.339-5.83 9.353-11.494 9.348" fill="#231f20"/><path d="m611.813 31.449c-2.396-.003-4.697.387-6.852 1.103l3.126 9.376c1.169-.386 2.42-.602 3.718-.602 5.678.007 10.41 4.044 11.482 9.399l9.685-1.967c-1.989-9.864-10.703-17.302-21.159-17.309" fill="#231f20"/><path d="m1108.94 75.829-106.172.038v-.128c0-.07.085-.526.189-1.013.103-.486.264-1.26.357-1.719.093-.46.253-1.24.354-1.735.102-.495.27-1.319.375-1.831.104-.513.268-1.322.364-1.799s.255-1.258.355-1.735.269-1.301.377-1.831.272-1.34.365-1.799c.092-.459.239-1.168.327-1.574.087-.407.198-.956.247-1.221s.206-1.046.35-1.735.303-1.469.353-1.734.21-1.046.355-1.735c.144-.689.303-1.47.353-1.735s.209-1.045.355-1.735c.146-.689.303-1.455.35-1.702s.174-.884.283-1.414c.11-.53.316-1.527.46-2.216.143-.689.388-1.889.545-2.667.156-.777.343-1.702.415-2.056.072-.353.203-.989.29-1.413s.245-1.19.351-1.703c.107-.512.28-1.35.385-1.863.105-.512.267-1.307.36-1.767.092-.459.251-1.225.352-1.702s.274-1.316.385-1.864c.111-.547.297-1.386.414-1.863.116-.477.281-1.055.365-1.285.085-.229.319-.727.52-1.106l.366-.689.333-.436c.183-.239.509-.618.725-.841.217-.223.581-.558.811-.746.23-.187.562-.439.739-.561s.524-.334.771-.473.594-.32.771-.403.538-.235.803-.338c.265-.102.771-.274 1.124-.381.354-.108 1.017-.269 1.474-.36.458-.09 1.181-.211 1.607-.268l.774-.104 53.118-.021 53.118-.02v.128c0 .07-.085.526-.189 1.012-.104.487-.278 1.319-.387 1.849-.108.53-.267 1.296-.352 1.702-.085.407-.246 1.187-.358 1.735s-.284 1.386-.382 1.863c-.099.477-.258 1.258-.355 1.735-.096.477-.256 1.258-.356 1.735s-.254 1.228-.343 1.67-.251 1.237-.359 1.767-.282 1.369-.386 1.863c-.104.495-.263 1.261-.352 1.703-.09.442-.252 1.237-.359 1.767-.108.53-.281 1.368-.385 1.863s-.26 1.246-.345 1.67c-.086.424-.247 1.22-.358 1.767-.111.548-.273 1.343-.36 1.767s-.242 1.176-.345 1.671c-.103.494-.278 1.347-.39 1.895s-.273 1.328-.357 1.735c-.084.406-.241 1.172-.349 1.702s-.28 1.369-.382 1.864c-.102.494-.262 1.275-.356 1.734-.093.46-.256 1.255-.361 1.767-.106.512-.277 1.351-.382 1.863-.105.513-.262 1.279-.35 1.703-.087.424-.246 1.205-.354 1.735s-.283 1.365-.389 1.856l-.194.892-.23.618c-.127.339-.317.791-.424 1.003-.106.212-.322.586-.48.831s-.378.559-.49.698c-.111.139-.446.497-.744.796l-.542.544-.521.371c-.287.204-.596.411-.687.46-.09.05-.436.226-.767.392-.332.166-.8.378-1.041.47s-.718.249-1.06.349c-.342.099-.709.197-.815.218-.106.02-.474.096-.818.169s-1.038.181-1.542.242zm-73.354-13.713h2.763l.039-.101c.021-.056.039-.188.039-.292 0-.105.045-.486.101-.846.056-.361.186-1.191.29-1.845.104-.653.26-1.636.346-2.184s.192-1.249.234-1.558c.043-.309.095-.562.115-.562.021 0 .111.136.199.303l.16.304.357.359.356.359.438.175.439.176.522.067.523.068.663-.041.663-.04 1.436-.372.386-.176c.212-.097.588-.308.835-.469l.45-.293.419-.419c.231-.23.556-.6.723-.821s.303-.419.303-.438c0-.02.082-.157.183-.305.1-.148.305-.558.455-.911.151-.353.386-.989.523-1.413l.249-.771.129-.668c.071-.368.162-.975.202-1.349l.074-.682-.085-1.156-.268-1.157-.435-.866-.838-.888-.496-.257-.496-.256-1.092-.262-1.092-.08-.609.07-.608.07-.496.127-.497.127-.431.199c-.238.11-.583.297-.767.415-.185.118-.376.254-.424.302s-.163.137-.256.197l-.169.111.118-.565c.065-.31.119-.6.121-.644l.002-.081h-2.356l-.206 1.301c-.114.716-.293 1.822-.399 2.458-.105.636-.265 1.59-.354 2.12s-.248 1.47-.353 2.088c-.105.619-.278 1.602-.386 2.185-.107.583-.264 1.436-.349 1.895-.084.459-.244 1.327-.354 1.928-.11.6-.287 1.554-.394 2.12-.106.565-.279 1.461-.384 1.991-.105.531-.207 1.029-.226 1.109zm7.328-7.428-.536.032-.351-.062-.35-.062-.712-.325-.249-.237-.249-.238-.144-.321c-.079-.177-.18-.477-.225-.667l-.082-.346.033-.554.033-.553.165-.868c.091-.477.255-1.373.364-1.991.108-.619.273-1.525.365-2.014l.169-.889.368-.307c.203-.168.523-.394.713-.502l.345-.195.899-.279 1.157-.068.941.201.665.306.279.28.278.28.151.297c.082.163.198.482.258.71l.107.413-.033 1.22-.033 1.221-.165.722c-.09.397-.263 1.004-.384 1.349l-.218.628-.269.508c-.147.279-.374.657-.505.839-.13.182-.338.418-.462.524s-.331.272-.46.369l-.236.176-.545.185-.545.186zm13.342 1.766.707.008.706-.064c.389-.036 1.025-.109 1.414-.164s1.06-.178 1.492-.273l.786-.172.039-.29c.021-.159.109-.633.196-1.053l.157-.764-.07-.07-.24.116c-.132.064-.543.216-.914.338l-.674.223-1.415.274-2.248.004-.386-.123c-.212-.068-.524-.192-.693-.275l-.307-.153-.508-.458-.396-.692-.248-.869-.002-1.606.11-.717.11-.716.967-.046.967-.045 7.148.046.108-.458c.059-.251.15-.772.202-1.156l.093-.699.004-1.175-.203-.878-.169-.291c-.092-.159-.255-.391-.362-.514s-.297-.297-.423-.386c-.127-.089-.374-.239-.551-.333l-.321-.171-1.123-.271-.692-.066-.691-.066-1.285.084-1.542.296-.482.193c-.265.106-.67.299-.899.429-.23.13-.548.342-.707.471s-.435.379-.612.557c-.178.177-.44.496-.583.708-.144.212-.364.588-.489.835s-.288.594-.363.771c-.074.177-.209.538-.3.803-.09.265-.233.771-.316 1.124-.084.354-.198.935-.254 1.293l-.103.65.002 1.912.098.418c.053.23.156.577.228.771s.204.483.295.642c.09.159.284.415.429.569.146.154.41.388.586.519.177.132.492.317.699.411l.378.172.527.128c.29.07.727.153.971.184.245.031.763.061 1.152.065zm1.21-9.051c-1.779 0-3.234-.012-3.234-.028s.076-.24.169-.498c.092-.258.255-.643.362-.854l.193-.385.85-.845.418-.2c.229-.11.533-.23.674-.266.142-.036.547-.084.9-.107l.642-.041.494.063.493.064.359.164.358.164.197.212c.108.117.237.289.286.382l.09.169.119.753-.136 1.253zm19.222 9.052.707.007.802-.095c.442-.052 1.03-.139 1.306-.192.277-.054.725-.161.996-.237.271-.077.516-.159.545-.184s.105-.316.17-.648.147-.777.182-.989.053-.397.04-.41c-.013-.014-.06.004-.105.039-.045.036-.361.169-.701.295l-.619.23-.881.171-.881.17-.749-.025-.749-.026-.425-.147-.426-.148-.328-.287-.329-.288-.436-.794-.208-1.063.001-1.379.127-.835.126-.835.133-.45c.074-.247.157-.537.185-.643s.146-.409.262-.674.322-.675.459-.91l.249-.429.305-.316.306-.317.323-.2.324-.201.415-.128c.229-.07.632-.162.897-.203l.482-.075 1.414.071 1.67.334.34.127c.187.07.348.127.358.127s.055-.239.099-.531c.045-.291.125-.771.178-1.065.052-.295.083-.549.067-.564-.015-.016-.266-.056-.558-.089-.291-.033-1.083-.092-1.76-.131l-1.229-.071-1.735.133-.643.135-.642.135-.414.166c-.228.091-.561.255-.741.365s-.408.257-.508.328-.404.346-.674.613l-.492.484-.275.402c-.151.222-.412.683-.581 1.026l-.306.623-.235.675c-.129.371-.309.978-.4 1.349l-.166.675-.12 1.22.001 1.607.122.934.192.481.193.48.222.348.222.347.707.696.748.395.491.136c.27.075.66.162.867.192s.695.058 1.084.063zm10.568-.024.867-.025.547-.14.546-.14.353-.167c.194-.092.512-.273.707-.403.194-.13.495-.376.668-.548.174-.172.431-.465.572-.651.14-.187.264-.331.274-.321.011.011-.022.308-.072.661-.05.352-.091.822-.092 1.043l-.001.401h2.358l.036-.915.037-.916.168-1.189c.092-.653.242-1.622.332-2.152s.247-1.426.348-1.992c.101-.565.262-1.447.357-1.959l.172-.932.006-.805.006-.804-.364-.744-.493-.474-.405-.205-.406-.205-.603-.135-.604-.134-1.662-.126-1.071.066c-.589.036-1.418.108-1.842.16l-.771.093-1.051.004-.076.37c-.042.203-.159.686-.26 1.072-.101.387-.174.713-.162.725.011.011.292-.053.624-.142.332-.09 1.037-.237 1.568-.327l.963-.164 1.735-.071.559.098.558.097.373.185.373.184.418.622-.006.981-.111.539-.11.538-2.312.009-2.312.008-.757.207c-.416.115-.877.266-1.024.337s-.294.129-.326.129c-.033 0-.281.138-.551.305l-.49.305-.387.386c-.212.212-.484.53-.603.707s-.313.546-.431.82l-.214.499-.196 1.122v1.178l.188.98.174.319c.095.176.271.434.39.573l.216.252.384.234.385.233.44.125c.241.068.61.151.818.184l.378.06.868-.025zm1.317-1.824-1.028.054-.34-.087c-.187-.047-.472-.154-.632-.236l-.29-.15-.159-.188c-.088-.104-.221-.308-.297-.453l-.137-.265-.027-.618-.027-.617.109-.375c.059-.206.2-.563.312-.794l.203-.42.39-.387.389-.387.827-.398 1.028-.244h3.213l.102.042.101.042-.085.504c-.047.277-.16.779-.25 1.114-.09.336-.249.829-.353 1.097-.104.267-.19.504-.19.525 0 .022-.105.217-.234.433l-.235.394-.385.382c-.212.21-.409.382-.437.382-.029 0-.159.072-.289.16l-.237.161-.521.165zm20.399 1.847.611.007.578-.093c.318-.052.723-.135.899-.185.177-.05.495-.18.707-.289l.386-.197.663-.584.349-.466c.192-.256.366-.509.387-.562l.037-.096-.032.321c-.018.177-.058.466-.089.643-.031.176-.076.516-.099.754l-.043.434h2.521v-.867l.192-1.639c.106-.901.262-2.101.347-2.666s.217-1.375.292-1.799c.076-.424.21-1.19.298-1.702.088-.513.247-1.409.353-1.992.107-.583.277-1.508.378-2.056.102-.548.26-1.401.352-1.896.091-.494.255-1.362.364-1.927.108-.565.267-1.36.353-1.767.085-.406.155-.76.155-.787v-.048h-2.75l-.041.401c-.022.221-.127.951-.234 1.623-.106.671-.279 1.741-.385 2.377-.105.636-.207 1.253-.226 1.371l-.034.214-.109-.046c-.059-.026-.383-.115-.719-.2l-.61-.153-1.67-.13-1.414.132-1.285.324-1.221.596-.449.333-.45.333-.389.416c-.213.229-.522.608-.685.842l-.298.425-.349.727c-.192.4-.426.929-.519 1.177-.094.247-.259.795-.367 1.218l-.197.769-.194 1.996.146 1.606.086.289c.047.159.147.443.221.63l.136.34.247.335.248.335.282.231.283.232.385.191c.212.105.568.241.79.302.223.061.585.135.804.163.219.029.672.056 1.008.06zm1.581-1.849-.97.052-.328-.059c-.18-.033-.468-.12-.64-.193l-.313-.134-.263-.216-.264-.216-.195-.375-.196-.375-.089-.417-.09-.418.016-1.67.207-1.478.161-.514c.088-.283.161-.55.162-.593 0-.043.088-.274.194-.514.106-.239.284-.609.395-.821.11-.212.317-.542.46-.734.142-.192.395-.481.563-.643.168-.161.434-.373.592-.47l.288-.177 1.01-.35h2.12l.611.169c.335.093.692.201.792.24l.182.071-.036.176c-.019.097-.096.523-.17.947-.073.424-.219 1.234-.323 1.799-.104.566-.263 1.419-.355 1.896-.091.477-.223 1.084-.293 1.349-.071.265-.17.632-.221.816-.051.183-.172.501-.269.706-.098.206-.268.503-.379.662-.11.159-.298.38-.416.49s-.374.306-.568.435l-.354.235-.51.162zm-96.605 1.536h3.122l.112-.691c.062-.379.182-1.109.267-1.622.086-.512.245-1.466.354-2.12s.272-1.622.363-2.152c.09-.53.234-1.353.32-1.828.085-.474.171-.879.191-.899l.036-.036h8.395l.047.046.046.047-.072.371c-.04.204-.159.834-.264 1.399-.104.566-.28 1.52-.391 2.12-.11.601-.27 1.454-.354 1.896-.085.441-.257 1.367-.382 2.056-.124.689-.226 1.289-.226 1.333l.001.08h3.135l.069-.401c.038-.221.1-.619.137-.884.036-.265.125-.829.197-1.253s.215-1.262.319-1.863c.103-.601.276-1.627.385-2.281.108-.653.268-1.608.356-2.12s.245-1.38.349-1.927c.103-.548.276-1.473.383-2.056.108-.583.269-1.465.358-1.96s.252-1.391.361-1.992c.11-.6.248-1.302.308-1.558l.108-.466h-3.174l-.043.306c-.024.167-.101.637-.171 1.044-.069.406-.197 1.129-.282 1.606-.086.477-.242 1.388-.348 2.024s-.24 1.478-.299 1.871l-.107.714-2.33.048-2.33.047-1.951-.047c-1.073-.025-1.958-.051-1.965-.057s.03-.256.081-.555c.052-.299.151-.818.219-1.154s.197-1.001.287-1.478.192-1.069.226-1.317c.035-.247.107-.659.161-.915.054-.257.156-.796.227-1.2.071-.403.147-.779.168-.835l.04-.102h-3.149l-.101.563c-.055.309-.129.75-.164.979-.035.23-.152.967-.261 1.639-.108.671-.268 1.669-.355 2.216-.088.548-.246 1.546-.353 2.217s-.283 1.712-.392 2.313-.266 1.454-.35 1.895c-.083.442-.243 1.28-.354 1.863-.111.584-.273 1.408-.36 1.832s-.183.915-.214 1.092c-.03.176-.13.686-.221 1.132s-.165.858-.165.916zm17.461 0h2.764l.039-.101c.021-.056.039-.203.039-.326 0-.124.086-.765.193-1.425.106-.66.281-1.735.39-2.388.108-.654.268-1.608.355-2.121.087-.512.242-1.365.345-1.895.102-.53.259-1.354.348-1.831.09-.477.266-1.385.392-2.017s.245-1.175.264-1.206l.035-.056-2.795.034-.117.836c-.064.459-.204 1.37-.311 2.024-.107.653-.269 1.651-.36 2.216-.09.566-.249 1.476-.352 2.024s-.26 1.386-.35 1.863-.251 1.316-.358 1.863c-.107.548-.25 1.271-.319 1.607-.068.335-.142.675-.163.755zm32.332 0h2.743l.042-.58c.022-.319.1-.963.172-1.43s.22-1.398.329-2.07c.108-.671.31-1.789.448-2.483.138-.695.294-1.385.346-1.534.053-.149.096-.311.096-.359 0-.049.103-.313.229-.587s.361-.693.522-.932l.293-.434.784-.726.484-.231.483-.231 1.478.008.363.108c.2.06.38.109.401.109.022 0 .039-.068.039-.152 0-.083.072-.506.16-.94.089-.434.161-.807.161-.83 0-.022-.21-.104-.466-.182s-.61-.159-.787-.181l-.321-.04-.418.074c-.229.041-.571.13-.759.199-.187.069-.497.226-.689.348-.191.122-.488.361-.66.529-.172.169-.462.51-.644.757-.182.248-.372.508-.423.579l-.092.128.056-.257c.031-.141.117-.604.19-1.028.074-.424.15-.821.169-.883l.034-.113h-2.45v.155c0 .085-.072.599-.161 1.141-.088.542-.234 1.448-.324 2.013-.089.566-.249 1.549-.354 2.185-.104.636-.264 1.546-.354 2.023-.089.477-.249 1.316-.354 1.864-.105.547-.279 1.444-.388 1.991-.108.548-.237 1.195-.287 1.438s-.091.467-.091.498zm32.532 0h2.805v-.858l.162-1.065c.088-.585.235-1.513.325-2.06.091-.548.203-1.242.251-1.542.047-.301.172-.951.278-1.446s.238-1.029.294-1.188c.056-.16.102-.326.102-.371.001-.045.121-.334.266-.642l.265-.56.698-.928.383-.287c.21-.158.548-.368.751-.466l.369-.179 1.606.011.316.102.317.101.106-.066.003-.205c.001-.113.07-.532.153-.932l.15-.727-.169-.067c-.093-.036-.314-.111-.49-.167l-.321-.101-1.157.003-.942.332-.708.426-.92.964-.247.374c-.136.205-.256.364-.266.353-.011-.011.063-.44.164-.952s.184-.997.186-1.076l.002-.145h-2.377v.041c0 .023-.059.435-.131.916-.073.481-.218 1.409-.324 2.063-.105.654-.278 1.709-.384 2.345-.105.636-.265 1.547-.354 2.024-.09.477-.248 1.316-.352 1.863-.105.548-.276 1.43-.382 1.96-.105.53-.245 1.231-.31 1.558zm-61.155-15.679.78.002.31-.105.31-.106.275-.278.274-.279.145-.371.144-.37.011-1.093-.129-.213-.128-.213-.448-.277h-.966l-.658.294-.19.205-.191.204-.15.354-.15.353-.057 1.101.14.273.139.274.27.122z" fill="#b3131b"/><path d="m1230.35 48.505c0-20.439-17.06-34.566-35.753-34.56h-16.085c-18.916-.007-34.484 14.125-34.484 34.56 0 18.695 15.569 34.055 34.484 33.964h16.085c18.691.09 35.753-15.274 35.753-33.964z" fill="#0079be"/><path d="m1178.61 16.84c-17.283.006-31.289 14.044-31.295 31.37.005 17.323 14.01 31.359 31.295 31.365 17.288-.005 31.298-14.042 31.3-31.365-.002-17.326-14.011-31.363-31.3-31.37z" fill="#fff"/><path d="m1158.83 48.125c.017-8.466 5.294-15.686 12.735-18.555v37.106c-7.441-2.868-12.718-10.083-12.735-18.551zm26.933 18.561v-37.115c7.444 2.862 12.729 10.086 12.743 18.556-.014 8.473-5.299 15.692-12.743 18.559z" fill="#0079be"/><path d="m755.662 13.377h105.376l.113 32.84c-12.721-4.839-53.196-16.418-105.489-1.988z"/><path d="m755.662 83.036h105.376v-26.273c-19.005-6.36-52.787-15.891-105.376-2.388z" fill="#fff200"/><path d="m861.038 56.763c-19.005-6.36-52.787-15.891-105.376-2.388v-10.146c52.293-14.43 92.768-2.835 105.489 1.988z" fill="#ed1c24"/><path d="m789.23 38.042c2.607-7.207 8.575-13.429 18.944-13.361 10.369.069 17.284 5.992 19.15 13.742-13.36-1.389-22.268-1.632-38.094-.381z" fill="#fff200"/><path d="m779.205 69.727 7.057-10.526h2.599l7.519 10.526h-2.753l-2.142-3.186h-7.693l-2.024 3.186zm5.3-4.32h6.231l-1.919-2.911c-.475-.701-.909-1.43-1.3-2.182-.249.712-.582 1.392-.992 2.025l-2.024 3.081zm24.236 4.32v-1.117c-1.04.861-2.448 1.292-4.227 1.292-.741.005-1.479-.08-2.199-.256-.543-.111-1.058-.331-1.514-.647-.32-.245-.562-.577-.696-.956-.109-.395-.156-.805-.138-1.214v-4.717h2.255v4.223c-.025.459.022.919.138 1.364.182.379.507.67.903.81.545.207 1.125.305 1.708.287.646.005 1.289-.095 1.903-.295.495-.131.935-.414 1.259-.81.277-.446.407-.967.373-1.49v-4.089h2.255v7.615zm7.49 0v-7.615h2.024v1.154c.399-.454.888-.818 1.437-1.069.462-.177.952-.264 1.446-.259.791.002 1.575.139 2.32.405l-.778 1.214c-.531-.186-1.089-.282-1.651-.283-.457-.007-.911.079-1.333.255-.351.135-.646.385-.838.708-.252.462-.382.98-.376 1.506v3.988zm19.219-.939c-.773.382-1.588.672-2.429.863-.819.171-1.654.255-2.49.251-1.462 0-2.583-.203-3.373-.612-.789-.409-1.178-.931-1.178-1.567.004-.387.165-.757.445-1.024.329-.329.725-.582 1.162-.741.525-.191 1.067-.327 1.62-.405.441-.065 1.109-.133 2-.194 1.349-.069 2.693-.218 4.024-.445v-.337c.035-.465-.219-.906-.639-1.109-.812-.337-1.69-.486-2.567-.437-.797-.039-1.595.069-2.352.32-.508.215-.91.621-1.122 1.129l-2.202-.174c.19-.525.534-.981.987-1.308.604-.391 1.282-.653 1.992-.769.996-.19 2.008-.28 3.021-.267.928-.018 1.856.06 2.769.231.555.094 1.088.29 1.571.579.318.214.562.521.7.878.092.39.129.791.11 1.191v1.72c-.036.762.013 1.525.145 2.276.114.347.31.661.571.915h-2.356c-.233-.266-.388-.591-.449-.94zm-.19-2.883c-1.216.248-2.447.411-3.685.49-.661.038-1.318.124-1.967.255-.325.061-.631.2-.891.405-.191.147-.307.371-.316.612 0 .344.231.631.684.862.632.262 1.314.379 1.996.344.786.013 1.569-.096 2.32-.324.572-.153 1.09-.463 1.494-.895.269-.374.398-.831.365-1.291z" stroke="#2c328c" stroke-width=".09"/></g><path d="m1251.68 15.618c-3.95 0-7.154 3.204-7.154 7.156v50.865c0 3.953 3.203 7.156 7.154 7.156h87.166c3.95 0 7.154-3.204 7.154-7.156v-50.865c0-3.953-3.203-7.156-7.154-7.156h-87.166z" fill="#4d4d4d"/><path d="m1287.09 36.679c1.149 0 2.114.232 3.287.792v2.96c-1.112-1.023-2.076-1.451-3.351-1.451-2.506 0-4.477 1.954-4.477 4.43 0 2.612 1.91 4.449 4.602 4.449 1.211 0 2.157-.406 3.226-1.413v2.961c-1.215.539-2.2.752-3.351.752-4.069 0-7.231-2.94-7.231-6.731 0-3.75 3.246-6.749 7.295-6.749zm-12.634.082c1.502 0 2.876.484 4.025 1.43l-1.398 1.723c-.696-.734-1.354-1.044-2.155-1.044-1.151 0-1.99.617-1.99 1.43 0 .696.471 1.065 2.074 1.624 3.04 1.046 3.941 1.974 3.941 4.023 0 2.497-1.949 4.235-4.725 4.235-2.034 0-3.512-.754-4.743-2.455l1.726-1.565c.615 1.12 1.642 1.72 2.916 1.72 1.192 0 2.075-.775 2.075-1.82 0-.541-.267-1.006-.801-1.334-.269-.155-.801-.387-1.847-.735-2.51-.85-3.371-1.759-3.371-3.536 0-2.111 1.849-3.696 4.273-3.696zm30.536.225h2.919l3.654 8.663 3.7-8.663h2.897l-5.918 13.228h-1.438zm-51.693.019h3.923c4.333 0 7.354 2.652 7.354 6.458 0 1.898-.924 3.734-2.487 4.951-1.315 1.028-2.813 1.489-4.888 1.489h-3.902zm12.507 0h2.672v12.898h-2.672zm53.564 0h7.578v2.186h-4.907v2.863h4.727v2.184h-4.727v3.482h4.908v2.183h-7.579zm9.349 0h3.962c3.082 0 4.848 1.394 4.848 3.808 0 1.975-1.108 3.271-3.121 3.657l4.312 5.433h-3.286l-3.698-5.181h-.349v5.181h-2.668zm2.668 2.032v3.906h.781c1.707 0 2.611-.698 2.611-1.994 0-1.255-.905-1.912-2.569-1.912zm-75.417.154v8.529h.717c1.726 0 2.817-.312 3.657-1.026.924-.774 1.48-2.011 1.48-3.249 0-1.236-.556-2.436-1.48-3.211-.883-.752-1.931-1.043-3.657-1.043z" fill="#fff"/><path d="m1298.53 36.59c4.025 0 7.288 3.068 7.288 6.857v.005c0 3.789-3.263 6.861-7.288 6.861s-7.288-3.072-7.288-6.861v-.005c0-3.789 3.263-6.857 7.288-6.857zm47.465 16.542c-3.389 2.384-28.761 19.428-72.69 27.661h65.536c3.951 0 7.154-3.205 7.154-7.156v-20.506z" fill="#f47216"/><path d="m988.598 74.075c0 9.631-7.843 17.474-17.474 17.474h-95.079v-69.211c0-9.631 7.843-17.474 17.474-17.474h95.079z" fill="#fff" fill-rule="nonzero"/><path d="m957.639 56.325h7.224c.206 0 .688-.069.894-.069 1.376-.275 2.546-1.514 2.546-3.234 0-1.651-1.17-2.889-2.546-3.233-.206-.069-.619-.069-.894-.069h-7.224z" fill="url(#b)" fill-rule="nonzero"/><path d="m964.037 10.711c-6.879 0-12.521 5.573-12.521 12.522v13.003h17.681c.413 0 .895 0 1.239.068 3.99.207 6.948 2.271 6.948 5.848 0 2.821-1.995 5.229-5.71 5.71v.138c4.059.275 7.155 2.546 7.155 6.054 0 3.784-3.44 6.261-7.981 6.261h-19.401v25.455h18.369c6.88 0 12.522-5.572 12.522-12.521v-62.538h-18.301z" fill="url(#c)" fill-rule="nonzero"/><path d="m967.408 42.978c0-1.651-1.169-2.752-2.545-2.959-.138 0-.482-.068-.688-.068h-6.536v6.054h6.536c.206 0 .619 0 .688-.069 1.376-.206 2.545-1.307 2.545-2.958z" fill="url(#d)" fill-rule="nonzero"/><path d="m894.826 10.711c-6.879 0-12.521 5.573-12.521 12.522v30.89c3.509 1.72 7.155 2.821 10.802 2.821 4.334 0 6.673-2.615 6.673-6.192v-14.585h10.732v14.516c0 5.642-3.508 10.251-15.41 10.251-7.224 0-12.866-1.582-12.866-1.582v26.349h18.37c6.879 0 12.521-5.572 12.521-12.521v-62.469h-18.301z" fill="url(#e)" fill-rule="nonzero"/><path d="m929.432 10.711c-6.88 0-12.521 5.573-12.521 12.522v16.374c3.164-2.683 8.668-4.403 17.543-3.991 4.747.207 9.838 1.514 9.838 1.514v5.297c-2.545-1.307-5.572-2.476-9.494-2.752-6.742-.481-10.801 2.821-10.801 8.6 0 5.848 4.059 9.15 10.801 8.6 3.922-.275 6.949-1.514 9.494-2.752v5.298s-5.022 1.307-9.838 1.513c-8.875.413-14.379-1.307-17.543-3.99v28.895h18.369c6.88 0 12.521-5.573 12.521-12.521v-62.607z" fill="url(#f)" fill-rule="nonzero"/><g clip-path="url(#h)"><path d="m77.834 74.147v-34.298c0-6.311 5.116-11.427 11.427-11.427l10.126.016c6.293.012 11.387 5.117 11.387 11.409v7.301c0 6.311-5.116 11.426-11.427 11.426h-14.309" style="fill:none;stroke:#939598;stroke-width:2.11;stroke-linecap:round;stroke-linejoin:round;stroke-miterlimit:10"/><path d="m113.604 28.418h4.393c2.59 0 4.689 2.099 4.689 4.689v25.621" style="fill:none;stroke:#939598;stroke-width:2.11;stroke-linecap:round;stroke-linejoin:round;stroke-miterlimit:10"/><path d="m121.744 24.449-1.992-1.993c-.494-.494-.494-1.296 0-1.79l1.991-1.991c.495-.495 1.298-.495 1.792 0l1.991 1.991c.495.494.495 1.296 0 1.79l-1.992 1.993c-.494.494-1.295.494-1.79 0" fill="#32bcad" fill-rule="nonzero"/><path d="m131.113 28.395h4.357c2.241 0 4.39.89 5.975 2.475l10.189 10.189c1.32 1.32 3.46 1.32 4.78 0l10.152-10.152c1.585-1.584 3.734-2.475 5.975-2.475h3.542" style="fill:none;stroke:#939598;stroke-width:2.11;stroke-linecap:round;stroke-linejoin:round;stroke-miterlimit:10"/><path d="m131.113 58.504h4.357c2.241 0 4.39-.891 5.975-2.475l10.189-10.19c1.32-1.32 3.46-1.32 4.78 0l10.152 10.152c1.585 1.585 3.734 2.475 5.975 2.475h3.542" style="fill:none;stroke:#939598;stroke-width:2.11;stroke-linecap:round;stroke-linejoin:round;stroke-miterlimit:10"/><g fill-rule="nonzero"><path d="m51.862 65.013c-2.187 0-4.243-.851-5.789-2.396l-8.359-8.359c-.586-.589-1.609-.587-2.196 0l-8.389 8.389c-1.546 1.545-3.602 2.397-5.789 2.397h-1.647l10.586 10.586c3.306 3.306 8.667 3.306 11.973 0l10.617-10.617z" fill="#32bcad"/><path d="m21.34 35.447c2.186 0 4.243.852 5.789 2.397l8.389 8.391c.604.604 1.591.606 2.196-.001l8.359-8.359c1.546-1.546 3.602-2.397 5.789-2.397h1.007l-10.617-10.616c-3.306-3.307-8.667-3.307-11.973 0l-10.586 10.586z" fill="#32bcad"/><path d="m61.65 44.259-6.416-6.415c-.141.056-.294.092-.455.092h-2.917c-1.508 0-2.985.611-4.05 1.678l-8.358 8.358c-.783.782-1.81 1.174-2.837 1.174-1.028 0-2.055-.392-2.837-1.173l-8.39-8.39c-1.066-1.066-2.542-1.678-4.05-1.678h-3.587c-.153 0-.295-.036-.43-.087l-6.442 6.441c-3.306 3.307-3.306 8.667 0 11.973l6.441 6.441c.136-.051.278-.087.431-.087h3.587c1.508 0 2.984-.611 4.05-1.678l8.389-8.389c1.516-1.515 4.16-1.515 5.675.001l8.358 8.358c1.065 1.066 2.542 1.678 4.05 1.678h2.917c.161 0 .314.035.455.092l6.416-6.416c3.306-3.306 3.306-8.666 0-11.973" fill="#32bcad"/><path d="m86.542 71.231c-.473 0-1.024.114-1.569.24v2.09c.377.138.809.204 1.222.204 1.048 0 1.545-.353 1.545-1.276 0-.868-.407-1.258-1.198-1.258m-1.923 3.882v-4.133h.288l.03.18c.485-.114 1.156-.264 1.635-.264.39 0 .761.059 1.072.311.36.294.474.767.474 1.282 0 .54-.18 1.048-.671 1.33-.342.191-.803.269-1.216.269-.426 0-.833-.066-1.258-.191v1.216z" fill="#939598"/><path d="m90.749 71.219c-1.048 0-1.515.33-1.515 1.252 0 .893.461 1.294 1.515 1.294 1.042 0 1.509-.324 1.509-1.246 0-.892-.461-1.3-1.509-1.3m1.348 2.546c-.348.251-.815.323-1.348.323-.545 0-1.012-.077-1.354-.323-.383-.269-.539-.713-.539-1.27 0-.551.156-1 .539-1.276.342-.245.809-.323 1.354-.323.539 0 1 .078 1.348.323.389.276.539.725.539 1.27 0 .557-.156 1.007-.539 1.276" fill="#939598"/><path d="m97.059 74.005-1.169-2.51h-.024l-1.15 2.51h-.317l-1.246-3.025h.389l1.037 2.539h.024l1.126-2.539h.323l1.156 2.539h.024l1.013-2.539h.377l-1.246 3.025z" fill="#939598"/><path d="m100.881 71.213c-.97 0-1.299.431-1.36 1.055h2.72c-.03-.689-.384-1.055-1.36-1.055m-.012 2.875c-.581 0-.958-.083-1.257-.335-.354-.306-.474-.749-.474-1.258 0-.485.162-1 .563-1.294.336-.233.749-.305 1.18-.305.39 0 .839.042 1.21.294.437.293.522.808.522 1.395h-3.103c.011.623.215 1.174 1.389 1.174.557 0 1.078-.09 1.564-.174v.317c-.504.091-1.061.186-1.594.186" fill="#939598"/><path d="m103.627 74.005v-3.025h.287l.03.18c.641-.162.941-.264 1.504-.264h.042v.335h-.084c-.473 0-.761.066-1.426.24v2.534z" fill="#939598"/><path d="m107.542 71.213c-.97 0-1.299.431-1.36 1.055h2.72c-.03-.689-.383-1.055-1.36-1.055m-.011 2.875c-.582 0-.959-.083-1.258-.335-.354-.306-.474-.749-.474-1.258 0-.485.162-1 .563-1.294.336-.233.749-.305 1.18-.305.39 0 .839.042 1.21.294.438.293.522.808.522 1.395h-3.103c.011.623.215 1.174 1.389 1.174.557 0 1.078-.09 1.564-.174v.317c-.504.091-1.061.186-1.593.186" fill="#939598"/><path d="m113.145 71.423c-.377-.138-.808-.204-1.222-.204-1.048 0-1.545.354-1.545 1.276 0 .874.407 1.258 1.197 1.258.474 0 1.025-.114 1.57-.234zm.066 2.582-.03-.18c-.485.114-1.156.263-1.635.263-.389 0-.761-.053-1.072-.311-.36-.294-.474-.767-.474-1.282 0-.539.18-1.048.671-1.324.342-.197.803-.275 1.222-.275.42 0 .827.072 1.252.192v-1.384h.354v4.301z" fill="#939598"/><path d="m118.681 71.231c-.474 0-1.025.114-1.57.24v2.084c.384.144.809.21 1.222.21 1.048 0 1.545-.353 1.545-1.276 0-.868-.407-1.258-1.197-1.258m.904 2.588c-.342.191-.803.269-1.216.269-.449 0-.898-.078-1.354-.227l-.018.144h-.24v-4.301h.354v1.443c.485-.107 1.138-.251 1.599-.251.39 0 .761.059 1.072.311.36.294.474.767.474 1.282 0 .54-.18 1.048-.671 1.33" fill="#939598"/><path d="m120.725 75.166v-.329c.173.018.336.03.449.03.438 0 .701-.126.946-.623l.114-.239-1.581-3.025h.408l1.353 2.611h.024l1.288-2.611h.401l-1.701 3.396c-.311.617-.647.82-1.264.82-.138 0-.287-.011-.437-.03" fill="#939598"/><path d="m128.998 72.279h-1.174v1.061h1.18c.809 0 1.114-.09 1.114-.533 0-.474-.419-.528-1.12-.528m-.215-1.719h-.959v1.078h.965c.796 0 1.114-.095 1.114-.545 0-.478-.402-.533-1.12-.533m1.821 3.157c-.432.276-.953.288-1.905.288h-1.791v-4.103h1.749c.82 0 1.323.011 1.743.263.299.18.419.455.419.815 0 .431-.179.719-.647.91v.024c.527.12.869.39.869.971 0 .395-.144.652-.437.832" fill="#939598"/><path d="m134.624 72.735c-.354-.03-.713-.048-1.09-.048-.617 0-.833.126-.833.407 0 .264.18.408.653.408.395 0 .869-.09 1.27-.18zm.18 1.27-.024-.18c-.516.126-1.114.263-1.642.263-.323 0-.67-.042-.916-.221-.227-.162-.336-.426-.336-.731 0-.342.15-.659.509-.821.318-.149.743-.161 1.133-.161.317 0 .742.018 1.096.042v-.055c0-.472-.312-.628-1.162-.628-.33 0-.731.017-1.114.053v-.611c.425-.035.904-.059 1.3-.059.526 0 1.072.042 1.407.281.347.246.414.588.414 1.036v1.792z" fill="#939598"/><path d="m139.418 74.005v-1.672c0-.551-.281-.748-.785-.748-.371 0-.838.095-1.234.191v2.229h-.844v-3.025h.689l.03.191c.532-.137 1.126-.275 1.617-.275.371 0 .749.053 1.036.311.239.216.33.515.33.947v1.851z" fill="#939598"/><path d="m142.643 74.088c-.39 0-.815-.053-1.126-.317-.372-.3-.48-.773-.48-1.282 0-.479.156-1 .617-1.294.378-.245.845-.299 1.33-.299.348 0 .689.024 1.066.059v.647c-.306-.029-.671-.053-.964-.053-.803 0-1.18.252-1.18.946 0 .653.281.935.94.935.383 0 .833-.072 1.27-.156v.623c-.473.096-.988.191-1.473.191" fill="#939598"/><path d="m146.611 71.53c-.803 0-1.156.252-1.156.941s.347.983 1.156.983c.796 0 1.144-.246 1.144-.935s-.341-.989-1.144-.989m1.449 2.241c-.371.251-.856.317-1.449.317-.605 0-1.09-.072-1.456-.317-.419-.275-.569-.731-.569-1.276s.15-1.006.569-1.282c.366-.245.851-.317 1.456-.317.599 0 1.078.072 1.449.317.42.276.564.737.564 1.276 0 .545-.15 1.007-.564 1.282" fill="#939598"/><path d="m153.5 74.088c-.509 0-1.06-.083-1.474-.425-.491-.407-.641-1.036-.641-1.713 0-.605.192-1.324.833-1.743.497-.323 1.114-.389 1.737-.389.456 0 .923.03 1.432.072v.736c-.438-.036-.976-.066-1.396-.066-1.168 0-1.665.444-1.665 1.39 0 .965.461 1.396 1.324 1.396.562 0 1.191-.114 1.826-.246v.73c-.635.127-1.3.258-1.976.258" fill="#939598"/><path d="m157.958 71.435c-.701 0-.97.252-1.024.713h2.037c-.025-.491-.312-.713-1.013-.713m-.126 2.653c-.497 0-.946-.059-1.282-.335-.359-.299-.485-.749-.485-1.264 0-.461.15-.976.57-1.276.371-.263.844-.317 1.323-.317.432 0 .941.048 1.312.305.485.342.527.869.533 1.492h-2.875c.018.461.263.761 1.114.761.527 0 1.114-.078 1.611-.156v.593c-.581.096-1.216.197-1.821.197" fill="#939598"/><path d="m163.561 74.005v-1.672c0-.551-.282-.748-.785-.748-.371 0-.838.095-1.234.191v2.229h-.844v-3.025h.688l.03.191c.533-.137 1.127-.275 1.618-.275.371 0 .748.053 1.036.311.239.216.329.515.329.947v1.851z" fill="#939598"/><path d="m166.803 74.088c-.407 0-.778-.114-.982-.431-.15-.216-.222-.509-.222-.916v-1.133h-.611v-.628h.611l.09-.917h.749v.917h1.192v.628h-1.192v.971c0 .234.018.431.084.575.09.204.287.281.551.281.197 0 .437-.03.605-.059v.604c-.276.055-.593.108-.875.108" fill="#939598"/><path d="m168.454 74.005v-3.025h.689l.03.191c.557-.155.97-.275 1.497-.275.024 0 .06 0 .108.006v.719c-.096-.006-.21-.006-.294-.006-.413 0-.724.048-1.186.156v2.234z" fill="#939598"/><path d="m173.849 72.735c-.354-.03-.713-.048-1.091-.048-.617 0-.833.126-.833.407 0 .264.18.408.653.408.396 0 .869-.09 1.271-.18zm.179 1.27-.024-.18c-.515.126-1.114.263-1.641.263-.324 0-.671-.042-.917-.221-.227-.162-.335-.426-.335-.731 0-.342.15-.659.509-.821.318-.149.743-.161 1.132-.161.318 0 .743.018 1.097.042v-.055c0-.472-.312-.628-1.163-.628-.329 0-.731.017-1.114.053v-.611c.425-.035.905-.059 1.3-.059.527 0 1.072.042 1.408.281.347.246.413.588.413 1.036v1.792z" fill="#939598"/><path d="m175.779 69.704h.845v4.301h-.845z" fill="#939598"/></g></g></g></svg>