<svg height="399pt" preserveAspectRatio="xMidYMid meet" viewBox="0 0 400 399" width="400pt" xmlns="http://www.w3.org/2000/svg"><path d="m1820 3979c-614-58-1169-403-1494-928-124-201-203-404-259-666-20-94-21-135-25-709-2-335-1-620 3-633 10-42 52-53 195-53h130v-108c0-204 51-333 185-468 94-95 188-146 314-171 67-13 79-19 89-43 36-82 152-163 257-180 67-11 161 3 218 31 61 32 134 105 164 168l28 56 3 890c3 991 6 952-64 1048-42 58-99 100-173 128-72 27-191 23-264-9-58-26-142-103-168-154-16-32-25-38-50-38-81 0-223-61-315-136l-57-47 6 115c20 367 163 687 426 949 170 170 338 276 557 352 176 62 245 72 474 72s298-10 474-72c219-76 387-182 557-352 263-262 406-582 426-949l6-115-57 47c-92 75-234 136-315 136-25 0-34 6-50 38-26 50-110 128-168 154-39 18-67 22-148 23-90 0-105-3-151-27-98-51-156-118-188-214-15-46-16-132-14-945l3-894 28-56c30-63 103-136 164-168 57-28 151-42 218-31 105 17 221 98 257 180 10 24 22 30 89 43 126 25 220 76 314 171 134 135 185 264 185 468v108h130c143 0 185 11 195 53 4 13 5 298 3 633-4 574-5 615-25 709-56 262-135 465-259 666-393 635-1118 998-1854 928zm460-185c263-42 492-133 725-288 162-108 370-314 474-470 122-183 211-380 261-576 44-174 50-257 50-793v-508l-77 3-78 3-6 525c-4 303-11 546-17 575-56 265-124 434-259 640-79 120-297 343-413 422-293 199-598 295-940 295s-647-96-940-295c-116-79-334-302-413-422-135-206-203-375-259-640-6-29-13-272-17-575l-6-525-77-3-78-3v508c0 536 6 619 50 793 50 196 139 393 261 576 104 156 312 362 474 470 272 181 560 282 880 308 85 7 305-4 405-20zm-902-1636c24-16 48-44 61-71l21-44-2-869c-3-844-4-870-23-898-10-16-37-42-59-57-50-37-138-41-196-8-45 26-87 88-95 143-3 22-5 415-3 871 3 750 5 833 20 860 55 101 182 135 276 73zm1425 16c42-21 75-52 95-89 15-27 17-110 20-860 2-456 0-849-3-871-14-98-91-164-191-164-69 0-107 20-150 76l-29 37v882 881l27 41c48 73 157 104 231 67zm-1903-985v-781l-27 7c-150 37-290 186-324 343-6 32-9 197-7 463l3 414 33 69c42 88 86 142 156 191 42 29 134 71 164 75 1 0 2-351 2-781zm2347 719c74-44 128-107 172-198l36-75 3-414c2-266-1-431-7-463-34-157-174-306-324-343l-27-7v780 781l46-14c25-7 70-28 101-47z" fill="#fff" transform="matrix(.1 0 0 -.1 0 399)"/></svg>