<svg xmlns="http://www.w3.org/2000/svg" xmlns:xlink="http://www.w3.org/1999/xlink" width="48" zoomAndPan="magnify" viewBox="0 0 36 36.000001" height="48" preserveAspectRatio="xMidYMid meet" version="1.0"><defs><g/></defs><g fill="#053370" fill-opacity="1"><g transform="translate(8.580884, 25.362796)"><g><path d="M 13.375 -9.546875 C 13.375 -7.640625 13.101562 -5.863281 12.5625 -4.21875 C 12.25 -3.195312 11.820312 -2.363281 11.28125 -1.71875 C 10.738281 -1.070312 10.125 -0.554688 9.4375 -0.171875 C 8.75 0.203125 8.003906 0.390625 7.203125 0.390625 C 6.273438 0.390625 5.441406 0.15625 4.703125 -0.3125 C 3.960938 -0.78125 3.304688 -1.453125 2.734375 -2.328125 C 2.316406 -2.960938 1.957031 -3.8125 1.65625 -4.875 C 1.25 -6.3125 1.046875 -7.796875 1.046875 -9.328125 C 1.046875 -11.398438 1.335938 -13.304688 1.921875 -15.046875 C 2.398438 -16.484375 3.125 -17.582031 4.09375 -18.34375 C 5.070312 -19.113281 6.109375 -19.5 7.203125 -19.5 C 8.304688 -19.5 9.335938 -19.117188 10.296875 -18.359375 C 11.265625 -17.609375 11.972656 -16.59375 12.421875 -15.3125 C 13.054688 -13.5625 13.375 -11.640625 13.375 -9.546875 Z M 9.03125 -9.578125 C 9.03125 -12.921875 9.007812 -14.875 8.96875 -15.4375 C 8.875 -16.738281 8.648438 -17.617188 8.296875 -18.078125 C 8.066406 -18.378906 7.6875 -18.53125 7.15625 -18.53125 C 6.75 -18.53125 6.429688 -18.414062 6.203125 -18.1875 C 5.847656 -17.863281 5.609375 -17.285156 5.484375 -16.453125 C 5.367188 -15.617188 5.3125 -12.71875 5.3125 -7.75 C 5.3125 -5.039062 5.40625 -3.226562 5.59375 -2.3125 C 5.738281 -1.644531 5.941406 -1.195312 6.203125 -0.96875 C 6.460938 -0.75 6.8125 -0.640625 7.25 -0.640625 C 7.71875 -0.640625 8.066406 -0.785156 8.296875 -1.078125 C 8.691406 -1.609375 8.914062 -2.421875 8.96875 -3.515625 Z M 9.03125 -9.578125 "/></g></g></g><g fill="#053370" fill-opacity="1"><g transform="translate(20.060944, 25.362796)"><g><path d="M 13.375 -9.546875 C 13.375 -7.640625 13.101562 -5.863281 12.5625 -4.21875 C 12.25 -3.195312 11.820312 -2.363281 11.28125 -1.71875 C 10.738281 -1.070312 10.125 -0.554688 9.4375 -0.171875 C 8.75 0.203125 8.003906 0.390625 7.203125 0.390625 C 6.273438 0.390625 5.441406 0.15625 4.703125 -0.3125 C 3.960938 -0.78125 3.304688 -1.453125 2.734375 -2.328125 C 2.316406 -2.960938 1.957031 -3.8125 1.65625 -4.875 C 1.25 -6.3125 1.046875 -7.796875 1.046875 -9.328125 C 1.046875 -11.398438 1.335938 -13.304688 1.921875 -15.046875 C 2.398438 -16.484375 3.125 -17.582031 4.09375 -18.34375 C 5.070312 -19.113281 6.109375 -19.5 7.203125 -19.5 C 8.304688 -19.5 9.335938 -19.117188 10.296875 -18.359375 C 11.265625 -17.609375 11.972656 -16.59375 12.421875 -15.3125 C 13.054688 -13.5625 13.375 -11.640625 13.375 -9.546875 Z M 9.03125 -9.578125 C 9.03125 -12.921875 9.007812 -14.875 8.96875 -15.4375 C 8.875 -16.738281 8.648438 -17.617188 8.296875 -18.078125 C 8.066406 -18.378906 7.6875 -18.53125 7.15625 -18.53125 C 6.75 -18.53125 6.429688 -18.414062 6.203125 -18.1875 C 5.847656 -17.863281 5.609375 -17.285156 5.484375 -16.453125 C 5.367188 -15.617188 5.3125 -12.71875 5.3125 -7.75 C 5.3125 -5.039062 5.40625 -3.226562 5.59375 -2.3125 C 5.738281 -1.644531 5.941406 -1.195312 6.203125 -0.96875 C 6.460938 -0.75 6.8125 -0.640625 7.25 -0.640625 C 7.71875 -0.640625 8.066406 -0.785156 8.296875 -1.078125 C 8.691406 -1.609375 8.914062 -2.421875 8.96875 -3.515625 Z M 9.03125 -9.578125 "/></g></g></g><g fill="#053370" fill-opacity="1"><g transform="translate(0.198807, 25.362796)"><g><path d="M 9.40625 -19.5 L 9.40625 -3.875 C 9.40625 -2.695312 9.453125 -1.945312 9.546875 -1.625 C 9.648438 -1.300781 9.867188 -1.035156 10.203125 -0.828125 C 10.535156 -0.617188 11.0625 -0.515625 11.78125 -0.515625 L 12.21875 -0.515625 L 12.21875 0 L 2.15625 0 L 2.15625 -0.515625 L 2.65625 -0.515625 C 3.476562 -0.515625 4.0625 -0.609375 4.40625 -0.796875 C 4.757812 -0.984375 4.992188 -1.242188 5.109375 -1.578125 C 5.234375 -1.910156 5.296875 -2.675781 5.296875 -3.875 L 5.296875 -13.78125 C 5.296875 -14.664062 5.253906 -15.21875 5.171875 -15.4375 C 5.085938 -15.65625 4.929688 -15.84375 4.703125 -16 C 4.472656 -16.15625 4.207031 -16.234375 3.90625 -16.234375 C 3.425781 -16.234375 2.84375 -16.082031 2.15625 -15.78125 L 1.90625 -16.296875 L 8.9375 -19.5 Z M 9.40625 -19.5 "/></g></g></g><path fill="#053370" d="M 2.414062 14.441406 L 34.101562 14.441406 C 34.175781 14.441406 34.25 14.472656 34.304688 14.523438 C 34.359375 14.578125 34.390625 14.652344 34.390625 14.726562 L 34.390625 19.386719 C 34.390625 19.460938 34.359375 19.535156 34.304688 19.589844 C 34.25 19.640625 34.175781 19.671875 34.101562 19.671875 L 2.414062 19.671875 C 2.339844 19.671875 2.265625 19.640625 2.210938 19.589844 C 2.15625 19.535156 2.128906 19.460938 2.128906 19.386719 L 2.128906 14.726562 C 2.128906 14.652344 2.15625 14.578125 2.210938 14.523438 C 2.265625 14.472656 2.339844 14.441406 2.414062 14.441406 " fill-opacity="1" fill-rule="nonzero"/><g fill="#ffffff" fill-opacity="1"><g transform="translate(3.223864, 18.329899)"><g><path d="M 1.6875 -1.019531 L 1.011719 -1.019531 L 1.351562 -1.972656 Z M 2.6875 0 L 1.601562 -2.671875 L 1.101562 -2.671875 L 0.0195312 0 L 0.652344 0 L 0.84375 -0.539062 L 1.859375 -0.539062 L 2.054688 0 Z M 2.6875 0 "/></g></g></g><g fill="#ffffff" fill-opacity="1"><g transform="translate(7.118901, 18.329899)"><g><path d="M 2.332031 0 L 2.332031 -2.671875 L 1.742188 -2.671875 L 1.742188 -1.003906 L 0.824219 -2.671875 L 0.234375 -2.671875 L 0.234375 0 L 0.824219 0 L 0.824219 -1.664062 L 1.742188 0 Z M 2.332031 0 "/></g></g></g><g fill="#ffffff" fill-opacity="1"><g transform="translate(10.876521, 18.329899)"><g><path d="M 1.273438 -0.417969 C 0.980469 -0.417969 0.730469 -0.5625 0.714844 -0.878906 L 0.117188 -0.878906 C 0.121094 -0.226562 0.660156 0.0625 1.25 0.0625 C 1.792969 0.0625 2.355469 -0.167969 2.355469 -0.796875 C 2.355469 -1.8125 0.8125 -1.472656 0.8125 -1.949219 C 0.8125 -2.148438 1.042969 -2.226562 1.210938 -2.226562 C 1.503906 -2.226562 1.664062 -2.136719 1.695312 -1.855469 L 2.265625 -1.855469 C 2.246094 -2.464844 1.75 -2.710938 1.203125 -2.710938 C 0.714844 -2.710938 0.203125 -2.449219 0.203125 -1.902344 C 0.203125 -0.914062 1.746094 -1.25 1.746094 -0.730469 C 1.746094 -0.492188 1.457031 -0.417969 1.273438 -0.417969 Z M 1.273438 -0.417969 "/></g></g></g><g fill="#ffffff" fill-opacity="1"><g transform="translate(14.539912, 18.329899)"><g><path d="M 0.824219 0 L 0.824219 -2.671875 L 0.234375 -2.671875 L 0.234375 0 Z M 0.824219 0 "/></g></g></g><g fill="#ffffff" fill-opacity="1"><g transform="translate(16.789863, 18.329899)"><g><path d="M 1.78125 -0.535156 L 0.824219 -0.535156 L 0.824219 -1.070312 L 1.742188 -1.070312 L 1.742188 -1.605469 L 0.824219 -1.605469 L 0.824219 -2.136719 L 1.78125 -2.136719 L 1.78125 -2.671875 L 0.234375 -2.671875 L 0.234375 0 L 1.78125 0 Z M 1.78125 -0.535156 "/></g></g></g><g fill="#ffffff" fill-opacity="1"><g transform="translate(19.997812, 18.329899)"><g><path d="M 0.816406 -0.542969 L 0.816406 -2.125 L 0.992188 -2.125 C 1.449219 -2.125 1.753906 -1.777344 1.753906 -1.335938 C 1.753906 -0.890625 1.445312 -0.542969 0.992188 -0.542969 Z M 0.234375 -2.671875 L 0.234375 0 L 1.027344 0 C 1.785156 0 2.355469 -0.582031 2.355469 -1.335938 C 2.355469 -2.089844 1.78125 -2.671875 1.027344 -2.671875 Z M 0.234375 -2.671875 "/></g></g></g><g fill="#ffffff" fill-opacity="1"><g transform="translate(23.680834, 18.329899)"><g><path d="M 1.6875 -1.019531 L 1.011719 -1.019531 L 1.351562 -1.972656 Z M 2.6875 0 L 1.601562 -2.671875 L 1.101562 -2.671875 L 0.0195312 0 L 0.652344 0 L 0.84375 -0.539062 L 1.859375 -0.539062 L 2.054688 0 Z M 2.6875 0 "/></g></g></g><g fill="#ffffff" fill-opacity="1"><g transform="translate(27.575872, 18.329899)"><g><path d="M 0.816406 -0.542969 L 0.816406 -2.125 L 0.992188 -2.125 C 1.449219 -2.125 1.753906 -1.777344 1.753906 -1.335938 C 1.753906 -0.890625 1.445312 -0.542969 0.992188 -0.542969 Z M 0.234375 -2.671875 L 0.234375 0 L 1.027344 0 C 1.785156 0 2.355469 -0.582031 2.355469 -1.335938 C 2.355469 -2.089844 1.78125 -2.671875 1.027344 -2.671875 Z M 0.234375 -2.671875 "/></g></g></g><g fill="#ffffff" fill-opacity="1"><g transform="translate(31.258893, 18.329899)"><g><path d="M 1.78125 -0.535156 L 0.824219 -0.535156 L 0.824219 -1.070312 L 1.742188 -1.070312 L 1.742188 -1.605469 L 0.824219 -1.605469 L 0.824219 -2.136719 L 1.78125 -2.136719 L 1.78125 -2.671875 L 0.234375 -2.671875 L 0.234375 0 L 1.78125 0 Z M 1.78125 -0.535156 "/></g></g></g></svg>