<svg clip-rule="evenodd" fill-rule="evenodd" stroke-linejoin="round" stroke-miterlimit="2" viewBox="0 0 305 171" xmlns="http://www.w3.org/2000/svg"><path d="m0 0h304.059v170.566h-304.059z" fill="none"/><g fill-rule="nonzero"><path d="m62.995 13.091v116.896c0 8.781.386 14.386 1.167 16.813.776 2.416 2.396 4.406 4.854 5.958 2.459 1.542 6.386 2.313 11.792 2.313h3.271v3.895h-75.25v-3.895h3.791c6.11 0 10.464-.698 13.063-2.105 2.609-1.416 4.364-3.354 5.271-5.812.916-2.458 1.375-8.177 1.375-17.167v-74.104c0-6.594-.323-10.719-.959-12.375-.625-1.651-1.802-3.052-3.52-4.208-1.724-1.167-3.709-1.75-5.959-1.75-3.583 0-7.937 1.125-13.062 3.375l-1.896-3.792 52.583-24.042h3.479z" fill="#e2c5fc"/><path d="m187.048 87.508c0 14.266-2 27.578-6 39.938-2.391 7.598-5.605 13.822-9.646 18.666-4.042 4.849-8.636 8.698-13.771 11.542-5.125 2.844-10.708 4.271-16.75 4.271-6.891 0-13.115-1.761-18.667-5.271-5.541-3.511-10.458-8.542-14.75-15.083-3.083-4.777-5.786-11.131-8.104-19.063-3.031-10.75-4.542-21.854-4.542-33.312 0-15.527 2.177-29.792 6.542-42.792 3.583-10.75 9.026-18.985 16.333-24.708 7.302-5.735 15.032-8.605 23.188-8.605 8.292 0 16.031 2.834 23.229 8.5 7.208 5.657 12.5 13.261 15.875 22.813 4.708 13.14 7.063 27.51 7.063 43.104zm-32.459-.208c0-25.011-.14-39.594-.416-43.75-.709-9.761-2.396-16.365-5.063-19.813-1.766-2.25-4.615-3.375-8.542-3.375-3.031 0-5.416.849-7.166 2.542-2.599 2.458-4.354 6.802-5.271 13.021-.917 6.208-1.375 27.906-1.375 65.083 0 20.24.698 33.792 2.104 40.667 1.052 5 2.568 8.343 4.542 10.021 1.968 1.682 4.567 2.52 7.791 2.52 3.511 0 6.151-1.125 7.917-3.375 2.943-3.927 4.63-10.005 5.063-18.229z" fill="#e2c5fc"/><path d="m281.371 87.508c0 14.266-2 27.578-6 39.938-2.391 7.598-5.605 13.822-9.646 18.666-4.042 4.849-8.636 8.698-13.771 11.542-5.125 2.844-10.708 4.271-16.75 4.271-6.891 0-13.115-1.761-18.667-5.271-5.541-3.511-10.458-8.542-14.75-15.083-3.083-4.777-5.786-11.131-8.104-19.063-3.031-10.75-4.542-21.854-4.542-33.312 0-15.527 2.177-29.792 6.542-42.792 3.583-10.75 9.026-18.985 16.333-24.708 7.302-5.735 15.032-8.605 23.188-8.605 8.292 0 16.031 2.834 23.229 8.5 7.208 5.657 12.5 13.261 15.875 22.813 4.708 13.14 7.063 27.51 7.063 43.104zm-32.459-.208c0-25.011-.14-39.594-.416-43.75-.709-9.761-2.396-16.365-5.063-19.813-1.766-2.25-4.615-3.375-8.542-3.375-3.031 0-5.416.849-7.166 2.542-2.599 2.458-4.354 6.802-5.271 13.021-.917 6.208-1.375 27.906-1.375 65.083 0 20.24.698 33.792 2.104 40.667 1.052 5 2.568 8.343 4.542 10.021 1.968 1.682 4.567 2.52 7.791 2.52 3.511 0 6.151-1.125 7.917-3.375 2.943-3.927 4.63-10.005 5.063-18.229z" fill="#e2c5fc"/><path d="m9.943 69.526h283.328v51.948h-283.328v-51.948" fill="#053370"/></g><g fill="#e2c5fc"><path d="m37.731 97.583h-5.567l2.786-7.838zm8.224 8.417-8.932-22.021h-4.115l-8.937 22.021h5.213l1.589-4.438h8.385l1.584 4.438z" fill-rule="nonzero"/><path d="m75.162 106v-22.021h-4.86v13.729l-7.572-13.729h-4.86v22.021h4.86v-13.729l7.572 13.729z" fill-rule="nonzero"/><path d="m97.402 102.568c-2.396 0-4.469-1.198-4.599-3.823h-4.917c.032 5.375 4.464 7.771 9.323 7.771 4.5 0 9.13-1.907 9.13-7.089 0-8.385-12.724-5.568-12.724-9.49 0-1.651 1.912-2.296 3.271-2.296 2.427 0 3.755.744 4.016 3.041h4.693c-.162-5.015-4.24-7.026-8.776-7.026-4.016 0-8.224 2.141-8.224 6.672 0 8.125 12.729 5.375 12.729 9.651 0 1.974-2.401 2.589-3.922 2.589z" fill-rule="nonzero"/><path d="m119.063 83.979h4.859v22.021h-4.859z"/><g fill-rule="nonzero"><path d="m150.371 101.594h-7.896v-4.433h7.573v-4.406h-7.573v-4.37h7.896v-4.406h-12.755v22.021h12.755z"/><path d="m168.86 101.531v-13.047h1.458c3.755 0 6.281 2.849 6.281 6.506 0 3.661-2.557 6.541-6.281 6.541zm-4.792-17.552v22.021h6.542c6.25 0 10.942-4.792 10.942-11.01 0-6.214-4.729-11.011-10.942-11.011z"/><path d="m206.417 97.583h-5.568l2.787-7.838zm8.224 8.417-8.932-22.021h-4.115l-8.938 22.021h5.214l1.589-4.438h8.385l1.583 4.438z"/><path d="m231.347 101.531v-13.047h1.459c3.755 0 6.281 2.849 6.281 6.506 0 3.661-2.557 6.541-6.281 6.541zm-4.791-17.552v22.021h6.541c6.25 0 10.943-4.792 10.943-11.01 0-6.214-4.729-11.011-10.943-11.011z"/><path d="m269.681 101.594h-7.896v-4.433h7.573v-4.406h-7.573v-4.37h7.896v-4.406h-12.756v22.021h12.756z"/></g></g></svg>