<svg height="49.067383" viewBox="0 0 33.597962 49.067383" width="33.597961" xmlns="http://www.w3.org/2000/svg" xmlns:xlink="http://www.w3.org/1999/xlink"><clipPath id="a"><path d="m0 500h500v-500h-500z"/></clipPath><g clip-path="url(#a)" transform="matrix(1.3333333 0 0 -1.3333333 -562.30957 150.69041)"><path d="m0 0c-2.201-2.201-2.201-5.77 0-7.97l4.208-4.209c.646-.645.188-1.747-.724-1.747h-32.916c-3.113 0-5.636-2.523-5.636-5.636 0-3.112 2.523-5.636 5.636-5.636h32.916c.912 0 1.369-1.102.724-1.746l-4.208-4.209c-2.201-2.201-2.201-5.769 0-7.97s5.77-2.201 7.971 0l16.299 16.299c1.801 1.802 1.801 4.723 0 6.524l-16.299 16.3c-2.201 2.201-5.77 2.201-7.971 0" fill="#404040" transform="translate(311.6426 374.3633)"/><path d="m0 0v-15.941l23.547 23.546-23.547 23.548v-15.942-1.969h-36.15v-11.272h36.15z" fill="#ed4f44" transform="translate(424.7412 347.1958)"/><path d="m0 0-7.73 7.731 18 18-18 18 7.73 7.731 25.731-25.731z" fill="#404040" transform="translate(53.4756 238.5225)"/><path d="m0 0-7.73 7.731 18 18-18 18 7.73 7.731 25.731-25.731z" fill="#404040" transform="translate(80.6514 238.5225)"/><path d="m0 0h-15.462l16.399-16.399-16.399-16.399h15.462l16.399 16.399z" fill="#ed4f44" transform="translate(177.9121 280.6528)"/><path d="m0 0h-15.462l16.399-16.399-16.399-16.399h15.462l16.399 16.399z" fill="#ed4f44" transform="translate(205.0879 280.6528)"/><path d="m0 0c-4.87 0-7.31-5.888-3.865-9.332l6.153-6.153c.505-.505.505-1.323 0-1.828l-6.153-6.153c-3.445-3.444-1.005-9.332 3.865-9.332 1.45 0 2.84.575 3.865 1.601l13.885 13.884c.504.505.504 1.323 0 1.828l-13.885 13.884c-1.025 1.025-2.415 1.601-3.865 1.601" fill="#18b8c4" transform="translate(287.0059 280.6528)"/><path d="m0 0c-4.87 0-7.31-5.888-3.865-9.332l6.153-6.153c.505-.505.505-1.323 0-1.828l-6.153-6.153c-3.445-3.444-1.005-9.332 3.865-9.332 1.45 0 2.84.575 3.865 1.601l13.885 13.884c.504.505.504 1.323 0 1.828l-13.885 13.884c-1.025 1.025-2.415 1.601-3.865 1.601" fill="#18b8c4" transform="translate(314.1816 280.6528)"/><path d="m0 0v-13.745-18.258-13.746l22.874 22.875z" fill="#404040" transform="translate(399.0645 287.1279)"/><path d="m0 0v-13.745-18.258-13.746l22.874 22.875z" fill="#404040" transform="translate(427.6406 287.1279)"/><path d="m0 0-4.95 4.949 14.585 14.586-14.585 14.586 4.95 4.949 19.534-19.535z" fill="#18b8c4" transform="translate(196.9966 75.082)"/><path d="m0 0-4.949 4.949 7.666 7.666-7.666 7.666 4.949 4.949 12.617-12.615z" fill="#18b8c4" transform="translate(184.8115 82.002)"/><path d="m0 0 16.257 19.52-16.257 19.519 26.096-19.519z" fill="#404040" transform="translate(302.8164 75.0977)"/><path d="m0 0 16.257 19.52-16.256 19.519 26.095-19.519z" fill="#404040" transform="translate(284.9258 75.0977)"/><path d="m0 0v-3.348c0-.898.423-1.744 1.143-2.281l14.393-10.767c.585-.438.585-1.317 0-1.754l-14.393-10.766c-.72-.539-1.144-1.385-1.144-2.283v-3.348c0-.926 1.058-1.455 1.799-.9l22.858 17.097c.719.538.719 1.616 0 2.153l-22.857 17.097c-.742.557-1.799.026-1.799-.9" fill="#000118" transform="translate(421.7354 111.8906)"/><path d="m0 0 5.177-3.873c.718-.537.718-1.615 0-2.152l-5.176-3.871c-.742-.555-1.799-.026-1.799.902l-.002 8.092c0 .927 1.058 1.457 1.8.902" fill="#000118" transform="translate(423.5322 99.5664)"/><path d="m0 0 12.74 12.74-12.74 12.74h21.03l12.741-12.74-12.741-12.74z" fill="#ed4f44" transform="translate(45.2402 81.877)"/><path d="m0 0 12.741 12.74-12.741 12.74h9.131l12.74-12.74-12.74-12.74z" fill="#ed4f44" transform="translate(73.6426 81.877)"/><path d="m0 0 12.74 12.74-12.74 12.74h9.13l12.741-12.74-12.741-12.74z" fill="#ed4f44" transform="translate(89.2324 81.877)"/><g fill="#18b8c4"><path d="m0 0-4.216-4.215 9.022-9.023h-24.532v-5.965h24.532l-9.022-9.022 4.216-4.216 16.222 16.22z" transform="translate(92.4092 192.7871)"/><path d="m58.198 173.584h9.4v5.965h-9.4z"/><path d="m47.713 173.584h4.953v5.965h-4.953z"/><path d="m0 0-19.057 19.057v-16.075h-14.769v-5.964h14.769v-16.075z" transform="translate(455.2363 176.5664)"/><path d="m406.925 173.584h9.4v5.965h-9.4z"/><path d="m396.438 173.584h4.953v5.965h-4.953z"/></g><path d="m0 0-11.68 11.68c-1.141 1.14-3.019 1.31-4.219.228-1.28-1.15-1.319-3.123-.117-4.326l5.294-5.295c.598-.598.175-1.619-.671-1.619h-19.089c-1.616 0-3.062-1.209-3.147-2.822-.09-1.719 1.277-3.143 2.978-3.143h19.258c.846 0 1.269-1.021.671-1.619l-5.174-5.176c-1.142-1.14-1.31-3.019-.23-4.219 1.152-1.279 3.125-1.318 4.327-.117l11.799 11.799c1.278 1.279 1.278 3.352 0 4.629" fill="#ed4f44" transform="translate(335.7422 178.8809)"/><path d="m0 0h-3.437c-1.646 0-2.982-1.336-2.982-2.982 0-1.647 1.336-2.983 2.982-2.983h3.437c1.646 0 2.981 1.336 2.981 2.983 0 1.646-1.335 2.982-2.981 2.982" fill="#ed4f44" transform="translate(294.042 179.5488)"/><path d="m0 0h-.321c-1.647 0-2.982-1.336-2.982-2.982 0-1.647 1.335-2.983 2.982-2.983h.321c1.647 0 2.981 1.336 2.981 2.983 0 1.646-1.334 2.982-2.981 2.982" fill="#ed4f44" transform="translate(280.4404 179.5488)"/><g fill="#404040"><path d="m0 0h-9.029l9.556-9.557h-24.646v-5.964h24.646l-9.556-9.557h9.029l12.54 12.539z" transform="translate(212.709 189.1055)"/><path d="m174.104 173.584h9.4v5.965h-9.4z"/><path d="m163.618 173.584h4.953v5.965h-4.953z"/></g></g></svg>