<svg clip-rule="evenodd" fill-rule="evenodd" stroke-linejoin="round" stroke-miterlimit="2" viewBox="0 0 34 50" xmlns="http://www.w3.org/2000/svg"><g fill="#00042a" fill-rule="nonzero"><path d="m.004 1.503v4.464c0 1.197.564 2.325 1.524 3.041l19.191 14.356c.78.584.78 1.756 0 2.339l-19.191 14.355c-.96.718-1.525 1.846-1.525 3.044v4.464c0 1.234 1.411 1.94 2.399 1.2l30.477-22.796c.959-.718.959-2.155 0-2.871l-30.476-22.796c-.989-.743-2.399-.035-2.399 1.2"/><path d="m2.4 17.935 6.903 5.164c.957.716.957 2.154 0 2.87l-6.902 5.161c-.989.74-2.398.035-2.398-1.203l-.003-10.789c0-1.236 1.411-1.943 2.4-1.203"/></g></svg>