<svg height="512pt" preserveAspectRatio="xMidYMid meet" viewBox="0 0 512 512" width="512pt" xmlns="http://www.w3.org/2000/svg"><g fill="#fff" transform="matrix(.1 0 0 -.1 0 512)"><path d="m3121 4503c-8-3-418-273-910-599l-896-594h-598c-579 0-599-1-637-20-26-13-47-34-60-60-19-38-20-58-20-670s1-632 20-670c13-26 34-47 60-60 38-19 58-20 637-20h598l882-585c485-321 896-591 912-600 66-34 156-3 191 65 20 39 20 55 20 1870s0 1831-20 1870c-31 60-120 96-179 73zm-103-2701-3-759-750 497-750 497v523 523l750 497 750 497 3-759c1-417 1-1099 0-1516zm-1808 758v-450h-455-455v450 450h455 455z"/><path d="m4458 3749c-43-22-78-81-78-129 0-44 24-86 95-162 158-171 283-427 326-668 20-110 18-375-4-480-52-249-166-479-322-648-71-76-95-118-95-162 0-50 35-107 80-130 85-43 145-18 251 105 545 634 545 1536 0 2170-106 123-169 149-253 104z"/><path d="m4069 3341c-46-15-67-30-89-66-18-29-22-47-18-91 4-46 11-61 47-101 148-168 205-313 205-523s-57-355-205-523c-36-40-43-55-47-101-7-83 29-133 111-157 54-15 106 6 166 69 114 119 206 290 252 468 32 124 33 358 2 484-42 165-124 324-236 453-67 78-127 106-188 88z"/><path d="m3610 2902c-72-38-99-145-53-208 81-114 82-167 7-257-33-40-40-89-19-142 20-54 62-86 121-93 58-6 96 11 144 66 141 160 143 418 4 580-20 23-49 49-65 57-38 20-97 19-139-3z"/></g></svg>