<svg fill="none" height="18" viewBox="0 0 18 18" width="18" xmlns="http://www.w3.org/2000/svg"><path d="m8.54127 1.05787c.17408-.401443.74338-.401444.91746 0l2.13937 4.93365c.0725.16707.23.28155.4113.29882l5.3533.51011c.4356.04151.6115.58294.2835.87255l-4.031 3.5593c-.1366.1205-.1967.3057-.1571.4835l1.1691 5.2489c.0951.4271-.3655.7617-.7423.5393l-4.6307-2.7339c-.15682-.0926-.35158-.0926-.5084 0l-4.63074 2.7339c-.37679.2224-.83736-.1122-.74223-.5393l1.16911-5.2489c.03959-.1778-.02059-.363-.1571-.4835l-4.031069-3.5593c-.3279984-.28961-.152076-.83104.283509-.87255l5.35329-.51011c.18129-.01727.33885-.13175.4113-.29882z" fill="#ffc428"/></svg>